<?xml version="1.0" encoding="UTF-8"?>
<!DOCTYPE svg PUBLIC "-//W3C//DTD SVG 1.1//EN" "http://www.w3.org/Graphics/SVG/1.1/DTD/svg11.dtd">
<svg xmlns="http://www.w3.org/2000/svg" version="1.1" width="480px" height="479px" style="shape-rendering:geometricPrecision; text-rendering:geometricPrecision; image-rendering:optimizeQuality; fill-rule:evenodd; clip-rule:evenodd" xmlns:xlink="http://www.w3.org/1999/xlink">
<g><path style="opacity:0.139" fill="#646d43" d="M 346.5,286.5 C 346.83,270.658 346.496,254.991 345.5,239.5C 345.831,216.661 345.497,193.994 344.5,171.5C 343.581,168.911 341.914,166.911 339.5,165.5C 334.414,162.29 329.081,159.624 323.5,157.5C 323.5,157.167 323.5,156.833 323.5,156.5C 333.392,153.271 340.392,146.937 344.5,137.5C 343.478,125.066 340.145,113.4 334.5,102.5C 326.855,83.1993 314.855,67.1993 298.5,54.5C 295.09,50.7621 291.09,47.7621 286.5,45.5C 283.322,42.7417 279.655,40.7417 275.5,39.5C 272.203,37.3987 268.537,36.0653 264.5,35.5C 259.102,33.2596 253.435,31.593 247.5,30.5C 247.5,30.1667 247.5,29.8333 247.5,29.5C 251.174,23.3122 253.34,16.6455 254,9.5C 253.5,8.33333 252.667,7.5 251.5,7C 248.331,6.02185 245.497,6.52185 243,8.5C 240.201,14.4024 237.701,20.4024 235.5,26.5C 234.596,27.209 234.263,28.209 234.5,29.5C 228.824,29.3339 223.157,29.5006 217.5,30C 215.942,30.21 214.609,30.71 213.5,31.5C 203.398,33.0482 193.732,36.0482 184.5,40.5C 183.391,40.4431 182.391,40.1098 181.5,39.5C 176.003,34.1708 170.336,29.0042 164.5,24C 156.516,23.4505 154.016,26.9505 157,34.5C 161.074,39.0793 165.574,43.0793 170.5,46.5C 170.833,47.1667 171.167,47.8333 171.5,48.5C 169.861,49.4725 168.527,50.8058 167.5,52.5C 157.452,58.8808 149.452,67.2141 143.5,77.5C 137.323,84.507 132.656,92.507 129.5,101.5C 120.521,121.065 116.521,141.732 117.5,163.5C 124.489,164.276 131.489,164.943 138.5,165.5C 138.833,165.5 139.167,165.5 139.5,165.5C 141.292,166.309 143.292,166.809 145.5,167C 143.685,167.757 142.019,168.59 140.5,169.5C 139.833,169.5 139.5,169.833 139.5,170.5C 136.759,170.707 134.426,171.707 132.5,173.5C 130.251,174.08 128.585,175.413 127.5,177.5C 126.026,178.436 125.026,179.77 124.5,181.5C 121.865,182.811 119.531,184.478 117.5,186.5C 100.08,197.926 94.9138,213.593 102,233.5C 103.444,237.411 105.611,240.744 108.5,243.5C 112.001,247.662 116.335,250.662 121.5,252.5C 121.5,277.833 121.5,303.167 121.5,328.5C 121.167,328.5 120.833,328.5 120.5,328.5C 120.667,303.831 120.5,279.164 120,254.5C 101.782,245.062 94.4489,230.062 98,209.5C 101.805,196.694 109.638,187.194 121.5,181C 125.829,174.993 131.495,170.66 138.5,168C 131.549,166.709 124.549,165.709 117.5,165C 114.212,117.235 131.212,78.2354 168.5,48C 163.699,44.201 159.199,40.0343 155,35.5C 151.446,26.0835 154.613,21.5835 164.5,22C 171.596,27.0924 178.096,32.9257 184,39.5C 199.134,31.5072 215.301,27.1739 232.5,26.5C 235.333,20.1667 238.167,13.8333 241,7.5C 246.285,2.13511 251.285,2.46844 256,8.5C 256.259,15.6757 254.425,22.3424 250.5,28.5C 299.935,42.1025 331.102,73.7691 344,123.5C 349.079,134.446 346.913,143.612 337.5,151C 334.167,153 330.833,155 327.5,157C 334.213,159.103 340.046,162.603 345,167.5C 345.973,169.392 346.64,171.392 347,173.5C 347.831,211.336 347.664,249.002 346.5,286.5 Z"/></g>
<g><path style="opacity:1" fill="#799836" d="M 181.5,39.5 C 182.391,40.1098 183.391,40.4431 184.5,40.5C 180.342,43.4143 176.009,46.0809 171.5,48.5C 171.167,47.8333 170.833,47.1667 170.5,46.5C 172.308,46.5086 173.975,46.0086 175.5,45C 178.043,43.6181 180.043,41.7848 181.5,39.5 Z"/></g>
<g><path style="opacity:1" fill="#cce34e" d="M 275.5,39.5 C 279.655,40.7417 283.322,42.7417 286.5,45.5C 284.063,45.2437 281.729,44.5771 279.5,43.5C 278.692,43.8076 278.025,44.3076 277.5,45C 279.543,46.708 281.21,48.708 282.5,51C 286.428,52.0922 288.761,54.5922 289.5,58.5C 288.448,58.6495 287.448,58.4828 286.5,58C 287.34,56.3335 286.84,56.1669 285,57.5C 283.363,55.1898 281.196,53.6898 278.5,53C 259.634,49.5403 240.634,50.5403 221.5,56C 195.808,65.3569 178.641,82.8569 170,108.5C 169.803,113.086 169.303,117.586 168.5,122C 170.172,127.326 171.339,132.826 172,138.5C 173.193,142.36 175.693,144.86 179.5,146C 179.167,146.333 178.833,146.667 178.5,147C 180.869,147.314 183.036,148.148 185,149.5C 185.945,149.095 186.612,148.428 187,147.5C 187.667,148.167 188.333,148.833 189,149.5C 192.174,147.379 195.507,147.046 199,148.5C 200.333,146.833 201.667,145.167 203,143.5C 203.519,144.516 204.353,145.182 205.5,145.5C 211.255,143.725 217.088,141.392 223,138.5C 225.607,141.025 228.273,141.025 231,138.5C 232.646,140.141 233.646,139.807 234,137.5C 235.619,138.083 237.452,138.083 239.5,137.5C 240.748,138.04 241.915,138.707 243,139.5C 243.333,138.833 243.667,138.167 244,137.5C 246.179,138.116 248.012,139.283 249.5,141C 250.793,141.49 252.127,141.657 253.5,141.5C 253.5,141.833 253.5,142.167 253.5,142.5C 251.883,143.038 250.216,143.371 248.5,143.5C 243.914,144.46 239.914,146.46 236.5,149.5C 215.961,150.109 195.628,152.442 175.5,156.5C 173.629,156.141 172.129,155.141 171,153.5C 163.13,130.412 164.13,107.746 174,85.5C 179.5,76 187,68.5 196.5,63C 218.354,49.7948 241.521,43.6282 266,44.5C 268.122,43.7801 268.622,42.6134 267.5,41C 270.063,39.9207 272.729,39.4207 275.5,39.5 Z"/></g>
<g><path style="opacity:1" fill="#bcdb43" d="M 241.5,30.5 C 243.5,30.5 245.5,30.5 247.5,30.5C 253.435,31.593 259.102,33.2596 264.5,35.5C 263.878,37.335 262.544,38.5017 260.5,39C 235.356,40.8253 212.023,48.492 190.5,62C 173.403,73.8742 164.569,90.3742 164,111.5C 163.727,120.361 163.56,128.861 163.5,137C 164.314,143.753 164.814,150.586 165,157.5C 165.671,158.252 166.504,158.586 167.5,158.5C 166.5,159.167 165.5,159.833 164.5,160.5C 163.167,160.5 161.833,160.5 160.5,160.5C 159.882,157.967 160.048,155.301 161,152.5C 161.333,136.5 161.667,120.5 162,104.5C 164.123,92.2661 168.456,80.9327 175,70.5C 192.901,55.0195 213.401,44.3528 236.5,38.5C 237.15,36.5648 237.483,34.5648 237.5,32.5C 236.167,32.5 234.833,32.5 233.5,32.5C 232.833,32.5 232.167,32.5 231.5,32.5C 227.688,31.6762 223.688,31.1762 219.5,31C 226.826,30.5003 234.159,30.3337 241.5,30.5 Z"/></g>
<g><path style="opacity:1" fill="#c4df48" d="M 264.5,35.5 C 268.537,36.0653 272.203,37.3987 275.5,39.5C 272.729,39.4207 270.063,39.9207 267.5,41C 268.622,42.6134 268.122,43.7801 266,44.5C 241.521,43.6282 218.354,49.7948 196.5,63C 187,68.5 179.5,76 174,85.5C 164.13,107.746 163.13,130.412 171,153.5C 172.129,155.141 173.629,156.141 175.5,156.5C 173.039,157.531 170.373,158.198 167.5,158.5C 166.504,158.586 165.671,158.252 165,157.5C 164.814,150.586 164.314,143.753 163.5,137C 163.56,128.861 163.727,120.361 164,111.5C 164.569,90.3742 173.403,73.8742 190.5,62C 212.023,48.492 235.356,40.8253 260.5,39C 262.544,38.5017 263.878,37.335 264.5,35.5 Z"/></g>
<g><path style="opacity:1" fill="#bad855" d="M 234.5,29.5 C 237.059,29.1984 239.393,29.5318 241.5,30.5C 234.159,30.3337 226.826,30.5003 219.5,31C 223.688,31.1762 227.688,31.6762 231.5,32.5C 228.5,32.5 225.5,32.5 222.5,32.5C 222.5,34.1667 222.5,35.8333 222.5,37.5C 226.167,37.5 229.833,37.5 233.5,37.5C 233.5,35.8333 233.5,34.1667 233.5,32.5C 234.833,32.5 236.167,32.5 237.5,32.5C 237.483,34.5648 237.15,36.5648 236.5,38.5C 229.167,38.5 221.833,38.5 214.5,38.5C 214.366,36.7085 214.699,35.0418 215.5,33.5C 215.918,32.7784 216.584,32.2784 217.5,32C 216.207,31.51 214.873,31.3433 213.5,31.5C 214.609,30.71 215.942,30.21 217.5,30C 223.157,29.5006 228.824,29.3339 234.5,29.5 Z"/></g>
<g><path style="opacity:1" fill="#9cc734" d="M 181.5,39.5 C 180.043,41.7848 178.043,43.6181 175.5,45C 173.975,46.0086 172.308,46.5086 170.5,46.5C 165.574,43.0793 161.074,39.0793 157,34.5C 154.016,26.9505 156.516,23.4505 164.5,24C 170.336,29.0042 176.003,34.1708 181.5,39.5 Z"/></g>
<g><path style="opacity:1" fill="#e1efac" d="M 231.5,32.5 C 232.167,32.5 232.833,32.5 233.5,32.5C 233.5,34.1667 233.5,35.8333 233.5,37.5C 229.833,37.5 226.167,37.5 222.5,37.5C 222.5,35.8333 222.5,34.1667 222.5,32.5C 225.5,32.5 228.5,32.5 231.5,32.5 Z"/></g>
<g><path style="opacity:1" fill="#819b3a" d="M 235.5,26.5 C 239.017,28.4679 243.017,29.4679 247.5,29.5C 247.5,29.8333 247.5,30.1667 247.5,30.5C 245.5,30.5 243.5,30.5 241.5,30.5C 239.393,29.5318 237.059,29.1984 234.5,29.5C 234.263,28.209 234.596,27.209 235.5,26.5 Z"/></g>
<g><path style="opacity:1" fill="#afd13f" d="M 247.5,29.5 C 243.017,29.4679 239.017,28.4679 235.5,26.5C 237.701,20.4024 240.201,14.4024 243,8.5C 245.497,6.52185 248.331,6.02185 251.5,7C 252.667,7.5 253.5,8.33333 254,9.5C 253.34,16.6455 251.174,23.3122 247.5,29.5 Z"/></g>
<g><path style="opacity:1" fill="#b6d83e" d="M 215.5,33.5 C 214.699,35.0418 214.366,36.7085 214.5,38.5C 221.833,38.5 229.167,38.5 236.5,38.5C 213.401,44.3528 192.901,55.0195 175,70.5C 168.456,80.9327 164.123,92.2661 162,104.5C 161.667,120.5 161.333,136.5 161,152.5C 160.048,155.301 159.882,157.967 160.5,160.5C 158.299,161.566 155.965,162.233 153.5,162.5C 153.708,160.08 153.374,157.747 152.5,155.5C 155.854,149.605 157.687,143.272 158,136.5C 158.333,124.167 158.667,111.833 159,99.5C 162.886,73.8773 176.052,54.7106 198.5,42C 204.494,39.6262 210.16,36.7929 215.5,33.5 Z"/></g>
<g><path style="opacity:1" fill="#d2e553" d="M 286.5,45.5 C 291.09,47.7621 295.09,50.7621 298.5,54.5C 296.22,53.3599 293.886,52.1932 291.5,51C 290.167,50.3333 288.833,50.3333 287.5,51C 293.942,60.4415 301.442,68.9415 310,76.5C 318.029,88.5551 325.029,101.222 331,114.5C 332.351,116.019 333.851,117.352 335.5,118.5C 335.833,117.167 336.167,115.833 336.5,114.5C 335.83,110.49 335.163,106.49 334.5,102.5C 340.145,113.4 343.478,125.066 344.5,137.5C 341.888,136.629 339.221,135.963 336.5,135.5C 332.796,133.909 328.796,133.076 324.5,133C 312.5,132.333 300.5,132.333 288.5,133C 287.263,133.232 286.263,133.732 285.5,134.5C 280.55,134.77 275.883,135.77 271.5,137.5C 267.163,137.584 263.163,138.584 259.5,140.5C 257.5,140.833 255.5,141.167 253.5,141.5C 252.127,141.657 250.793,141.49 249.5,141C 248.012,139.283 246.179,138.116 244,137.5C 243.667,138.167 243.333,138.833 243,139.5C 241.915,138.707 240.748,138.04 239.5,137.5C 237.452,138.083 235.619,138.083 234,137.5C 233.646,139.807 232.646,140.141 231,138.5C 228.273,141.025 225.607,141.025 223,138.5C 217.088,141.392 211.255,143.725 205.5,145.5C 204.353,145.182 203.519,144.516 203,143.5C 201.667,145.167 200.333,146.833 199,148.5C 195.507,147.046 192.174,147.379 189,149.5C 188.333,148.833 187.667,148.167 187,147.5C 186.612,148.428 185.945,149.095 185,149.5C 183.036,148.148 180.869,147.314 178.5,147C 178.833,146.667 179.167,146.333 179.5,146C 175.693,144.86 173.193,142.36 172,138.5C 171.339,132.826 170.172,127.326 168.5,122C 169.303,117.586 169.803,113.086 170,108.5C 178.641,82.8569 195.808,65.3569 221.5,56C 240.634,50.5403 259.634,49.5403 278.5,53C 281.196,53.6898 283.363,55.1898 285,57.5C 286.84,56.1669 287.34,56.3335 286.5,58C 287.448,58.4828 288.448,58.6495 289.5,58.5C 288.761,54.5922 286.428,52.0922 282.5,51C 281.21,48.708 279.543,46.708 277.5,45C 278.025,44.3076 278.692,43.8076 279.5,43.5C 281.729,44.5771 284.063,45.2437 286.5,45.5 Z"/></g>
<g><path style="opacity:1" fill="#cbde5d" d="M 298.5,54.5 C 314.855,67.1993 326.855,83.1993 334.5,102.5C 329.025,93.5638 323.525,84.5638 318,75.5C 311.584,68.2569 305.084,61.2569 298.5,54.5 Z"/></g>
<g><path style="opacity:1" fill="#e7f386" d="M 298.5,54.5 C 305.084,61.2569 311.584,68.2569 318,75.5C 323.525,84.5638 329.025,93.5638 334.5,102.5C 335.163,106.49 335.83,110.49 336.5,114.5C 336.167,115.833 335.833,117.167 335.5,118.5C 333.851,117.352 332.351,116.019 331,114.5C 325.029,101.222 318.029,88.5551 310,76.5C 301.442,68.9415 293.942,60.4415 287.5,51C 288.833,50.3333 290.167,50.3333 291.5,51C 293.886,52.1932 296.22,53.3599 298.5,54.5 Z"/></g>
<g><path style="opacity:1" fill="#9bcc30" d="M 144.5,165.5 C 143.833,165.5 143.167,165.5 142.5,165.5C 145.019,158.401 146.686,151.067 147.5,143.5C 147.425,133.58 147.425,123.58 147.5,113.5C 145.799,113.034 144.299,113.034 143,113.5C 141.067,119.677 138.9,125.677 136.5,131.5C 136.802,126.786 137.468,122.12 138.5,117.5C 141.387,112.211 143.22,106.545 144,100.5C 149.641,93.2384 154.308,85.2384 158,76.5C 160.209,74.6266 162.042,72.46 163.5,70C 164.167,69.3333 164.833,69.3333 165.5,70C 155.854,86.9081 152.187,104.575 154.5,123C 153.168,135.987 151.002,148.82 148,161.5C 146.898,162.949 145.731,164.282 144.5,165.5 Z"/></g>
<g><path style="opacity:1" fill="#a1cb3b" d="M 143.5,77.5 C 139.261,86.4036 134.594,95.0702 129.5,103.5C 129.5,102.833 129.5,102.167 129.5,101.5C 132.656,92.507 137.323,84.507 143.5,77.5 Z"/></g>
<g><path style="opacity:1" fill="#f3f4ef" d="M 267.5,87.5 C 270.188,87.1658 272.521,87.8325 274.5,89.5C 277.24,91.9003 278.073,94.9003 277,98.5C 275.89,100.037 274.39,100.703 272.5,100.5C 269.865,99.1891 267.531,97.5224 265.5,95.5C 265.166,92.812 265.832,90.4786 267.5,88.5C 267.5,88.1667 267.5,87.8333 267.5,87.5 Z"/></g>
<g><path style="opacity:1" fill="#324210" d="M 267.5,87.5 C 267.5,87.8333 267.5,88.1667 267.5,88.5C 266.391,88.5569 265.391,88.8902 264.5,89.5C 262.197,91.978 260.031,94.6447 258,97.5C 256.213,103.034 257.713,107.201 262.5,110C 271.503,112.843 276.503,109.676 277.5,100.5C 278.369,98.283 278.702,95.9496 278.5,93.5C 282.612,101.867 280.612,108.367 272.5,113C 259.354,114.521 253.521,108.687 255,95.5C 257.509,90.1437 261.676,87.477 267.5,87.5 Z"/></g>
<g><path style="opacity:1" fill="#b4bc9f" d="M 267.5,88.5 C 265.832,90.4786 265.166,92.812 265.5,95.5C 264.539,93.7354 264.205,91.7354 264.5,89.5C 265.391,88.8902 266.391,88.5569 267.5,88.5 Z"/></g>
<g><path style="opacity:1" fill="#4a5927" d="M 264.5,89.5 C 264.205,91.7354 264.539,93.7354 265.5,95.5C 267.531,97.5224 269.865,99.1891 272.5,100.5C 274.05,101.72 275.716,101.72 277.5,100.5C 276.503,109.676 271.503,112.843 262.5,110C 257.713,107.201 256.213,103.034 258,97.5C 260.031,94.6447 262.197,91.978 264.5,89.5 Z"/></g>
<g><path style="opacity:1" fill="#aad339" d="M 213.5,31.5 C 214.873,31.3433 216.207,31.51 217.5,32C 216.584,32.2784 215.918,32.7784 215.5,33.5C 210.16,36.7929 204.494,39.6262 198.5,42C 176.052,54.7106 162.886,73.8773 159,99.5C 158.667,111.833 158.333,124.167 158,136.5C 157.687,143.272 155.854,149.605 152.5,155.5C 153.374,157.747 153.708,160.08 153.5,162.5C 150.785,164.072 147.785,165.072 144.5,165.5C 145.731,164.282 146.898,162.949 148,161.5C 151.002,148.82 153.168,135.987 154.5,123C 152.187,104.575 155.854,86.9081 165.5,70C 164.833,69.3333 164.167,69.3333 163.5,70C 162.042,72.46 160.209,74.6266 158,76.5C 154.308,85.2384 149.641,93.2384 144,100.5C 143.22,106.545 141.387,112.211 138.5,117.5C 137.468,122.12 136.802,126.786 136.5,131.5C 135.833,131.5 135.5,131.833 135.5,132.5C 134.662,132.158 134.328,131.492 134.5,130.5C 135.648,125.905 136.481,121.238 137,116.5C 140.182,107.434 143.516,98.4335 147,89.5C 153.411,80.36 160.078,71.36 167,62.5C 167.981,59.8802 169.147,57.3802 170.5,55C 170.252,53.2509 169.252,52.4176 167.5,52.5C 168.527,50.8058 169.861,49.4725 171.5,48.5C 176.009,46.0809 180.342,43.4143 184.5,40.5C 193.732,36.0482 203.398,33.0482 213.5,31.5 Z"/></g>
<g><path style="opacity:1" fill="#899666" d="M 274.5,89.5 C 276.833,89.8333 278.167,91.1667 278.5,93.5C 278.702,95.9496 278.369,98.283 277.5,100.5C 275.716,101.72 274.05,101.72 272.5,100.5C 274.39,100.703 275.89,100.037 277,98.5C 278.073,94.9003 277.24,91.9003 274.5,89.5 Z"/></g>
<g><path style="opacity:1" fill="#fafaf9" d="M 192.5,108.5 C 193.391,109.11 194.391,109.443 195.5,109.5C 195.833,110.167 196.167,110.833 196.5,111.5C 196.594,115.734 194.594,118.067 190.5,118.5C 188.77,117.974 187.436,116.974 186.5,115.5C 185.677,110.661 187.677,108.327 192.5,108.5 Z"/></g>
<g><path style="opacity:1" fill="#bfc6ac" d="M 187.5,107.5 C 189.415,107.216 191.081,107.549 192.5,108.5C 187.677,108.327 185.677,110.661 186.5,115.5C 185.307,115.03 184.64,114.03 184.5,112.5C 184.771,110.307 185.771,108.641 187.5,107.5 Z"/></g>
<g><path style="opacity:1" fill="#c2df5a" d="M 167.5,52.5 C 169.252,52.4176 170.252,53.2509 170.5,55C 169.147,57.3802 167.981,59.8802 167,62.5C 160.078,71.36 153.411,80.36 147,89.5C 143.516,98.4335 140.182,107.434 137,116.5C 136.481,121.238 135.648,125.905 134.5,130.5C 132.797,135.981 131.297,141.648 130,147.5C 127.421,151.366 124.755,151.366 122,147.5C 121.501,143.514 121.334,139.514 121.5,135.5C 123.275,124.628 125.942,113.962 129.5,103.5C 134.594,95.0702 139.261,86.4036 143.5,77.5C 149.452,67.2141 157.452,58.8808 167.5,52.5 Z"/></g>
<g><path style="opacity:1" fill="#57672e" d="M 195.5,109.5 C 198.643,110.746 200.643,113.08 201.5,116.5C 200.1,117.1 199.1,118.1 198.5,119.5C 198.663,117.143 198.497,114.81 198,112.5C 197.617,111.944 197.117,111.611 196.5,111.5C 196.167,110.833 195.833,110.167 195.5,109.5 Z"/></g>
<g><path style="opacity:1" fill="#3e4e1c" d="M 181.5,109.5 C 183.483,115.089 184.816,121.089 185.5,127.5C 191.466,129.008 195.133,126.675 196.5,120.5C 197.167,120.167 197.833,119.833 198.5,119.5C 197.347,128.987 192.013,133.321 182.5,132.5C 176.45,128.389 174.283,122.722 176,115.5C 177.331,113.004 179.164,111.004 181.5,109.5 Z"/></g>
<g><path style="opacity:1" fill="#d1d6c4" d="M 196.5,111.5 C 197.117,111.611 197.617,111.944 198,112.5C 198.497,114.81 198.663,117.143 198.5,119.5C 197.833,119.833 197.167,120.167 196.5,120.5C 193.99,120.946 191.99,120.28 190.5,118.5C 194.594,118.067 196.594,115.734 196.5,111.5 Z"/></g>
<g><path style="opacity:1" fill="#2e3e0d" d="M 201.5,116.5 C 202.447,130.523 196.114,135.856 182.5,132.5C 192.013,133.321 197.347,128.987 198.5,119.5C 199.1,118.1 200.1,117.1 201.5,116.5 Z"/></g>
<g><path style="opacity:1" fill="#8fc42b" d="M 142.5,165.5 C 141.5,165.5 140.5,165.5 139.5,165.5C 139.167,165.5 138.833,165.5 138.5,165.5C 137.081,164.549 135.415,164.216 133.5,164.5C 134.565,153.517 135.565,142.517 136.5,131.5C 138.9,125.677 141.067,119.677 143,113.5C 144.299,113.034 145.799,113.034 147.5,113.5C 147.425,123.58 147.425,133.58 147.5,143.5C 146.686,151.067 145.019,158.401 142.5,165.5 Z"/></g>
<g><path style="opacity:1" fill="#51602d" d="M 187.5,107.5 C 185.771,108.641 184.771,110.307 184.5,112.5C 184.64,114.03 185.307,115.03 186.5,115.5C 187.436,116.974 188.77,117.974 190.5,118.5C 191.99,120.28 193.99,120.946 196.5,120.5C 195.133,126.675 191.466,129.008 185.5,127.5C 184.816,121.089 183.483,115.089 181.5,109.5C 183.102,107.926 185.102,107.259 187.5,107.5 Z"/></g>
<g><path style="opacity:1" fill="#bcd14b" d="M 336.5,135.5 C 332.158,135.261 327.824,134.927 323.5,134.5C 310.985,133.258 298.318,133.258 285.5,134.5C 286.263,133.732 287.263,133.232 288.5,133C 300.5,132.333 312.5,132.333 324.5,133C 328.796,133.076 332.796,133.909 336.5,135.5 Z"/></g>
<g><path style="opacity:1" fill="#89b02e" d="M 323.5,134.5 C 306.228,136.061 288.894,137.061 271.5,137.5C 275.883,135.77 280.55,134.77 285.5,134.5C 298.318,133.258 310.985,133.258 323.5,134.5 Z"/></g>
<g><path style="opacity:1" fill="#6e9e26" d="M 323.5,134.5 C 327.824,134.927 332.158,135.261 336.5,135.5C 339.221,135.963 341.888,136.629 344.5,137.5C 340.392,146.937 333.392,153.271 323.5,156.5C 319.126,155.656 314.793,154.656 310.5,153.5C 309.419,151.236 308.085,149.069 306.5,147C 297.872,143.269 288.539,141.269 278.5,141C 272.175,140.5 265.842,140.334 259.5,140.5C 263.163,138.584 267.163,137.584 271.5,137.5C 288.894,137.061 306.228,136.061 323.5,134.5 Z"/></g>
<g><path style="opacity:1" fill="#629121" d="M 259.5,140.5 C 265.842,140.334 272.175,140.5 278.5,141C 288.539,141.269 297.872,143.269 306.5,147C 308.085,149.069 309.419,151.236 310.5,153.5C 305.613,152.097 300.613,151.431 295.5,151.5C 292.288,148.058 288.288,145.891 283.5,145C 278.114,144.491 272.781,143.658 267.5,142.5C 262.995,142.711 258.328,142.711 253.5,142.5C 253.5,142.167 253.5,141.833 253.5,141.5C 255.5,141.167 257.5,140.833 259.5,140.5 Z"/></g>
<g><path style="opacity:1" fill="#5a871f" d="M 253.5,142.5 C 258.328,142.711 262.995,142.711 267.5,142.5C 272.781,143.658 278.114,144.491 283.5,145C 288.288,145.891 292.288,148.058 295.5,151.5C 294.209,151.263 293.209,151.596 292.5,152.5C 290.901,152.768 289.568,152.434 288.5,151.5C 289.552,151.649 290.552,151.483 291.5,151C 274.557,149.095 257.557,148.261 240.5,148.5C 243.167,146.833 245.833,145.167 248.5,143.5C 250.216,143.371 251.883,143.038 253.5,142.5 Z"/></g>
<g><path style="opacity:1" fill="#a7bd44" d="M 248.5,143.5 C 245.833,145.167 243.167,146.833 240.5,148.5C 239.167,148.833 237.833,149.167 236.5,149.5C 239.914,146.46 243.914,144.46 248.5,143.5 Z"/></g>
<g><path style="opacity:1" fill="#647d30" d="M 240.5,148.5 C 257.557,148.261 274.557,149.095 291.5,151C 290.552,151.483 289.552,151.649 288.5,151.5C 281.151,151.451 273.817,151.118 266.5,150.5C 262.833,150.5 259.167,150.5 255.5,150.5C 249.167,150.5 242.833,150.5 236.5,150.5C 236.5,150.167 236.5,149.833 236.5,149.5C 237.833,149.167 239.167,148.833 240.5,148.5 Z"/></g>
<g><path style="opacity:1" fill="#e9f289" d="M 226.5,151.5 C 229.625,150.521 232.958,150.187 236.5,150.5C 242.833,150.5 249.167,150.5 255.5,150.5C 256.458,151.962 257.624,153.295 259,154.5C 260.042,157.804 258.875,159.971 255.5,161C 251.72,161.918 248.054,162.751 244.5,163.5C 239.722,161.388 234.722,160.055 229.5,159.5C 229.158,158.662 228.492,158.328 227.5,158.5C 224.886,156.41 224.886,154.243 227.5,152C 227.272,151.601 226.938,151.435 226.5,151.5 Z"/></g>
<g><path style="opacity:1" fill="#6a8532" d="M 292.5,152.5 C 293.209,151.596 294.209,151.263 295.5,151.5C 300.613,151.431 305.613,152.097 310.5,153.5C 314.793,154.656 319.126,155.656 323.5,156.5C 323.5,156.833 323.5,157.167 323.5,157.5C 321.435,157.483 319.435,157.15 317.5,156.5C 309.299,154.433 300.966,153.099 292.5,152.5 Z"/></g>
<g><path style="opacity:1" fill="#a5ca41" d="M 134.5,130.5 C 134.328,131.492 134.662,132.158 135.5,132.5C 134.813,140.748 132.813,148.581 129.5,156C 126.412,156.847 123.579,156.347 121,154.5C 120.18,147.986 120.347,141.653 121.5,135.5C 121.334,139.514 121.501,143.514 122,147.5C 124.755,151.366 127.421,151.366 130,147.5C 131.297,141.648 132.797,135.981 134.5,130.5 Z"/></g>
<g><path style="opacity:1" fill="#a5b848" d="M 236.5,149.5 C 236.5,149.833 236.5,150.167 236.5,150.5C 232.958,150.187 229.625,150.521 226.5,151.5C 219.323,151.842 212.323,152.509 205.5,153.5C 191.713,155.191 178.047,157.524 164.5,160.5C 165.5,159.833 166.5,159.167 167.5,158.5C 170.373,158.198 173.039,157.531 175.5,156.5C 195.628,152.442 215.961,150.109 236.5,149.5 Z"/></g>
<g><path style="opacity:1" fill="#ddec6d" d="M 226.5,151.5 C 226.938,151.435 227.272,151.601 227.5,152C 224.886,154.243 224.886,156.41 227.5,158.5C 220.869,157.669 214.202,157.336 207.5,157.5C 207.33,156.178 207.663,155.011 208.5,154C 207.552,153.517 206.552,153.351 205.5,153.5C 212.323,152.509 219.323,151.842 226.5,151.5 Z"/></g>
<g><path style="opacity:1" fill="#8cb832" d="M 129.5,101.5 C 129.5,102.167 129.5,102.833 129.5,103.5C 125.942,113.962 123.275,124.628 121.5,135.5C 120.347,141.653 120.18,147.986 121,154.5C 123.579,156.347 126.412,156.847 129.5,156C 132.813,148.581 134.813,140.748 135.5,132.5C 135.5,131.833 135.833,131.5 136.5,131.5C 135.565,142.517 134.565,153.517 133.5,164.5C 135.415,164.216 137.081,164.549 138.5,165.5C 131.489,164.943 124.489,164.276 117.5,163.5C 116.521,141.732 120.521,121.065 129.5,101.5 Z"/></g>
<g><path style="opacity:1" fill="#c4dd48" d="M 205.5,153.5 C 206.552,153.351 207.552,153.517 208.5,154C 207.663,155.011 207.33,156.178 207.5,157.5C 193.851,159.494 180.851,163.494 168.5,169.5C 164.895,168.51 161.228,167.844 157.5,167.5C 154.15,167.665 150.817,167.498 147.5,167C 153.294,164.906 158.96,162.74 164.5,160.5C 178.047,157.524 191.713,155.191 205.5,153.5 Z"/></g>
<g><path style="opacity:1" fill="#a6ba48" d="M 207.5,157.5 C 214.202,157.336 220.869,157.669 227.5,158.5C 228.492,158.328 229.158,158.662 229.5,159.5C 214.632,157.595 200.298,159.262 186.5,164.5C 182.307,164.953 178.307,166.119 174.5,168C 173.244,168.417 172.577,169.25 172.5,170.5C 171.833,170.5 171.5,170.833 171.5,171.5C 167.228,170.51 162.894,169.844 158.5,169.5C 158.5,168.833 158.167,168.5 157.5,168.5C 157.5,168.167 157.5,167.833 157.5,167.5C 161.228,167.844 164.895,168.51 168.5,169.5C 180.851,163.494 193.851,159.494 207.5,157.5 Z"/></g>
<g><path style="opacity:1" fill="#c2dc45" d="M 229.5,159.5 C 233.026,160.974 236.693,162.307 240.5,163.5C 240.586,164.496 240.252,165.329 239.5,166C 233.822,166.582 228.488,167.415 223.5,168.5C 223.68,171.269 222.346,173.436 219.5,175C 220.28,176.073 220.113,177.24 219,178.5C 217.333,179.5 215.667,180.5 214,181.5C 213.387,183.495 213.887,185.162 215.5,186.5C 211.682,184.089 207.682,181.923 203.5,180C 202.619,179.292 201.953,178.458 201.5,177.5C 197.665,175.197 193.665,173.031 189.5,171C 188.086,169.007 187.086,166.84 186.5,164.5C 200.298,159.262 214.632,157.595 229.5,159.5 Z"/></g>
<g><path style="opacity:1" fill="#dceb6a" d="M 255.5,150.5 C 259.167,150.5 262.833,150.5 266.5,150.5C 269.085,153.553 269.752,156.886 268.5,160.5C 262.489,161.746 256.823,163.746 251.5,166.5C 248.759,166.293 246.426,165.293 244.5,163.5C 248.054,162.751 251.72,161.918 255.5,161C 258.875,159.971 260.042,157.804 259,154.5C 257.624,153.295 256.458,151.962 255.5,150.5 Z"/></g>
<g><path style="opacity:1" fill="#9ec433" d="M 186.5,164.5 C 187.086,166.84 188.086,169.007 189.5,171C 193.665,173.031 197.665,175.197 201.5,177.5C 195.924,176.364 190.591,174.53 185.5,172C 182.243,170.957 178.91,170.457 175.5,170.5C 174.5,170.5 173.5,170.5 172.5,170.5C 172.577,169.25 173.244,168.417 174.5,168C 178.307,166.119 182.307,164.953 186.5,164.5 Z"/></g>
<g><path style="opacity:1" fill="#cae04c" d="M 266.5,150.5 C 273.817,151.118 281.151,151.451 288.5,151.5C 289.568,152.434 290.901,152.768 292.5,152.5C 300.966,153.099 309.299,154.433 317.5,156.5C 317.343,157.873 317.51,159.207 318,160.5C 318.423,159.044 319.256,158.544 320.5,159C 319.167,159.667 319.167,160.333 320.5,161C 323.648,162.076 326.648,163.409 329.5,165C 330.823,165.816 331.489,166.983 331.5,168.5C 330.784,170.556 330.117,172.723 329.5,175C 330.647,192.17 329.981,209.337 327.5,226.5C 328.621,229.131 328.287,231.631 326.5,234C 327.595,243.278 326.595,252.612 323.5,262C 324.552,263.716 323.886,264.716 321.5,265C 324.135,268.228 323.802,270.228 320.5,271C 320.988,272.584 321.988,273.751 323.5,274.5C 321.899,275.204 320.565,276.371 319.5,278C 320.535,279.507 320.368,281.007 319,282.5C 316.496,280.353 314.162,280.353 312,282.5C 309.667,282.167 307.333,281.833 305,281.5C 304.085,282.328 303.419,283.328 303,284.5C 302.047,282.545 300.713,280.878 299,279.5C 298.316,278.216 298.483,277.049 299.5,276C 298.552,275.517 297.552,275.351 296.5,275.5C 296.623,272.412 295.623,269.745 293.5,267.5C 294.936,264.396 294.436,261.396 292,258.5C 291.586,258.957 291.086,259.291 290.5,259.5C 289.682,257.892 289.015,256.225 288.5,254.5C 292.007,248.31 296.34,242.644 301.5,237.5C 302.127,236.583 302.461,235.583 302.5,234.5C 322.314,221.885 327.814,204.552 319,182.5C 307.527,163.49 290.693,156.156 268.5,160.5C 269.752,156.886 269.085,153.553 266.5,150.5 Z"/></g>
<g><path style="opacity:1" fill="#8aa13d" d="M 160.5,160.5 C 161.833,160.5 163.167,160.5 164.5,160.5C 158.96,162.74 153.294,164.906 147.5,167C 150.817,167.498 154.15,167.665 157.5,167.5C 157.5,167.833 157.5,168.167 157.5,168.5C 151.804,168.447 146.138,168.78 140.5,169.5C 142.019,168.59 143.685,167.757 145.5,167C 143.292,166.809 141.292,166.309 139.5,165.5C 140.5,165.5 141.5,165.5 142.5,165.5C 143.167,165.5 143.833,165.5 144.5,165.5C 147.785,165.072 150.785,164.072 153.5,162.5C 155.965,162.233 158.299,161.566 160.5,160.5 Z"/></g>
<g><path style="opacity:1" fill="#c8df4b" d="M 240.5,163.5 C 252.124,168.132 260.457,176.132 265.5,187.5C 260.613,189.24 255.613,190.573 250.5,191.5C 242.43,193.28 234.263,194.613 226,195.5C 224.833,195.333 223.667,195.167 222.5,195C 220.278,192.044 217.945,189.21 215.5,186.5C 213.887,185.162 213.387,183.495 214,181.5C 215.667,180.5 217.333,179.5 219,178.5C 220.113,177.24 220.28,176.073 219.5,175C 222.346,173.436 223.68,171.269 223.5,168.5C 228.488,167.415 233.822,166.582 239.5,166C 240.252,165.329 240.586,164.496 240.5,163.5 Z"/></g>
<g><path style="opacity:1" fill="#a3b44b" d="M 229.5,159.5 C 234.722,160.055 239.722,161.388 244.5,163.5C 246.426,165.293 248.759,166.293 251.5,166.5C 255.417,170.594 259.25,174.928 263,179.5C 264.333,181.5 265.667,183.5 267,185.5C 267.74,186.749 267.573,187.749 266.5,188.5C 266.5,187.833 266.167,187.5 265.5,187.5C 260.457,176.132 252.124,168.132 240.5,163.5C 236.693,162.307 233.026,160.974 229.5,159.5 Z"/></g>
<g><path style="opacity:1" fill="#cde24e" d="M 271.5,162.5 C 285.275,163.049 297.275,168.049 307.5,177.5C 314.991,186.475 318.158,196.809 317,208.5C 315.01,213.813 312.01,218.48 308,222.5C 307.667,222.167 307.333,221.833 307,221.5C 303.871,225.007 300.371,228.174 296.5,231C 298.382,231.198 300.048,231.698 301.5,232.5C 299.5,232.5 297.5,232.5 295.5,232.5C 295.472,230.418 296.139,228.584 297.5,227C 296.833,226.833 296.167,226.667 295.5,226.5C 284.769,226.76 273.935,226.76 263,226.5C 250.437,229.87 237.937,233.37 225.5,237C 218.976,237.266 212.476,237.766 206,238.5C 201.959,237.6 198.292,235.933 195,233.5C 190.049,227.456 185.549,221.122 181.5,214.5C 174.667,206.833 167.833,199.167 161,191.5C 158.175,185.99 154.508,180.99 150,176.5C 149.505,174.527 149.338,172.527 149.5,170.5C 152.518,170.296 155.518,169.963 158.5,169.5C 162.894,169.844 167.228,170.51 171.5,171.5C 174.167,172.167 176.833,172.833 179.5,173.5C 181.594,178.741 185.594,181.574 191.5,182C 201.171,187.942 209.838,195.275 217.5,204C 220.5,204.667 223.5,204.667 226.5,204C 231.334,202.269 236.334,201.269 241.5,201C 249.848,198.159 257.515,194.326 264.5,189.5C 265.167,189.167 265.833,188.833 266.5,188.5C 267.573,187.749 267.74,186.749 267,185.5C 265.667,183.5 264.333,181.5 263,179.5C 259.25,174.928 255.417,170.594 251.5,166.5C 258.038,164.532 264.705,163.199 271.5,162.5 Z"/></g>
<g><path style="opacity:1" fill="#c4dc48" d="M 331.5,168.5 C 333.404,168.738 334.738,169.738 335.5,171.5C 335.099,205.528 335.765,239.528 337.5,273.5C 336.833,270.5 336.167,267.5 335.5,264.5C 335.086,247.814 334.253,231.147 333,214.5C 330.986,238.523 328.986,262.523 327,286.5C 326.007,290.442 325.34,294.442 325,298.5C 324.186,300.282 323.019,301.782 321.5,303C 322.167,303.333 322.833,303.667 323.5,304C 322.151,304.772 321.318,305.939 321,307.5C 320.333,306.833 319.667,306.167 319,305.5C 316.704,307.154 314.371,308.821 312,310.5C 310.933,309.809 309.766,309.309 308.5,309C 310.167,308.667 311.833,308.333 313.5,308C 311.101,307.289 308.768,307.456 306.5,308.5C 304.146,307.94 301.813,307.273 299.5,306.5C 299.709,305.914 300.043,305.414 300.5,305C 298.5,304.333 297.167,303 296.5,301C 295.552,300.517 294.552,300.351 293.5,300.5C 291.588,296.329 289.921,291.996 288.5,287.5C 287.749,286.624 287.249,285.624 287,284.5C 286.346,285.696 285.846,285.696 285.5,284.5C 286.025,283.808 286.692,283.308 287.5,283C 286.062,282.781 284.729,282.281 283.5,281.5C 280.734,279.82 278.401,277.653 276.5,275C 277.815,273.605 277.481,272.605 275.5,272C 276.654,271.086 276.487,270.253 275,269.5C 274.792,267.141 274.626,264.974 274.5,263C 280.973,255.194 288.14,248.027 296,241.5C 297.094,239.922 297.928,238.255 298.5,236.5C 299.514,235.326 300.847,234.66 302.5,234.5C 302.461,235.583 302.127,236.583 301.5,237.5C 296.34,242.644 292.007,248.31 288.5,254.5C 289.015,256.225 289.682,257.892 290.5,259.5C 291.086,259.291 291.586,258.957 292,258.5C 294.436,261.396 294.936,264.396 293.5,267.5C 295.623,269.745 296.623,272.412 296.5,275.5C 297.552,275.351 298.552,275.517 299.5,276C 298.483,277.049 298.316,278.216 299,279.5C 300.713,280.878 302.047,282.545 303,284.5C 303.419,283.328 304.085,282.328 305,281.5C 307.333,281.833 309.667,282.167 312,282.5C 314.162,280.353 316.496,280.353 319,282.5C 320.368,281.007 320.535,279.507 319.5,278C 320.565,276.371 321.899,275.204 323.5,274.5C 321.988,273.751 320.988,272.584 320.5,271C 323.802,270.228 324.135,268.228 321.5,265C 323.886,264.716 324.552,263.716 323.5,262C 326.595,252.612 327.595,243.278 326.5,234C 328.287,231.631 328.621,229.131 327.5,226.5C 329.981,209.337 330.647,192.17 329.5,175C 330.117,172.723 330.784,170.556 331.5,168.5 Z"/></g>
<g><path style="opacity:1" fill="#9aaa47" d="M 268.5,160.5 C 290.693,156.156 307.527,163.49 319,182.5C 327.814,204.552 322.314,221.885 302.5,234.5C 300.847,234.66 299.514,235.326 298.5,236.5C 296.181,236.992 294.181,237.992 292.5,239.5C 290.716,239.893 289.05,240.559 287.5,241.5C 287.5,240.833 287.167,240.5 286.5,240.5C 291.627,238.103 296.627,235.436 301.5,232.5C 314.579,226.197 321.245,215.697 321.5,201C 317.922,171.054 301.255,158.221 271.5,162.5C 264.705,163.199 258.038,164.532 251.5,166.5C 256.823,163.746 262.489,161.746 268.5,160.5 Z"/></g>
<g><path style="opacity:1" fill="#d1e661" d="M 317.5,156.5 C 319.435,157.15 321.435,157.483 323.5,157.5C 329.081,159.624 334.414,162.29 339.5,165.5C 342.07,171.142 343.07,177.142 342.5,183.5C 341.292,202.687 340.125,222.02 339,241.5C 338.583,236.199 337.75,230.699 336.5,225C 336.645,224.228 336.978,223.561 337.5,223C 336.84,205.735 336.173,188.569 335.5,171.5C 334.738,169.738 333.404,168.738 331.5,168.5C 331.489,166.983 330.823,165.816 329.5,165C 326.648,163.409 323.648,162.076 320.5,161C 319.167,160.333 319.167,159.667 320.5,159C 319.256,158.544 318.423,159.044 318,160.5C 317.51,159.207 317.343,157.873 317.5,156.5 Z"/></g>
<g><path style="opacity:1" fill="#94c52e" d="M 132.5,173.5 C 142.555,186.733 153.222,199.566 164.5,212C 165.624,212.249 166.624,212.749 167.5,213.5C 170.133,218.628 172.967,223.628 176,228.5C 177.922,231.048 180.255,233.048 183,234.5C 184.501,237.286 186.001,239.953 187.5,242.5C 187.158,243.338 186.492,243.672 185.5,243.5C 183.742,240.378 181.075,238.211 177.5,237C 169.271,229.087 160.604,221.92 151.5,215.5C 150.386,216.723 150.219,218.056 151,219.5C 153.717,222.71 156.217,226.044 158.5,229.5C 158.631,230.239 158.464,230.906 158,231.5C 156.493,230.495 155.327,229.162 154.5,227.5C 153.583,226.873 152.583,226.539 151.5,226.5C 148.583,222.334 145.916,218.001 143.5,213.5C 136.81,202.093 131.476,190.093 127.5,177.5C 128.585,175.413 130.251,174.08 132.5,173.5 Z"/></g>
<g><path style="opacity:1" fill="#75ab23" d="M 124.5,181.5 C 125.496,181.414 126.329,181.748 127,182.5C 129.124,187.076 130.957,191.743 132.5,196.5C 132.311,201.161 132.978,205.661 134.5,210C 133.809,211.067 133.309,212.234 133,213.5C 132.577,212.044 131.744,211.544 130.5,212C 129.427,213.594 128.427,215.094 127.5,216.5C 126.396,214.611 125.063,212.945 123.5,211.5C 122.269,212.651 122.269,213.817 123.5,215C 122.975,215.692 122.308,216.192 121.5,216.5C 121.795,215.174 121.295,213.841 120,212.5C 118.353,215.71 115.686,217.377 112,217.5C 111.386,219.313 111.719,219.647 113,218.5C 116.054,220.123 115.554,220.79 111.5,220.5C 112.086,224.854 112.752,229.188 113.5,233.5C 112.034,232.653 111.2,231.32 111,229.5C 110.178,221.445 110.512,213.445 112,205.5C 115.5,200 119,194.5 122.5,189C 121.383,187.108 119.716,186.275 117.5,186.5C 119.531,184.478 121.865,182.811 124.5,181.5 Z"/></g>
<g><path style="opacity:1" fill="#94b237" d="M 175.5,170.5 C 178.91,170.457 182.243,170.957 185.5,172C 190.591,174.53 195.924,176.364 201.5,177.5C 201.953,178.458 202.619,179.292 203.5,180C 207.682,181.923 211.682,184.089 215.5,186.5C 217.945,189.21 220.278,192.044 222.5,195C 223.667,195.167 224.833,195.333 226,195.5C 234.263,194.613 242.43,193.28 250.5,191.5C 241.519,194.375 232.352,197.042 223,199.5C 216.347,190.417 207.847,183.583 197.5,179C 190.096,176.037 182.762,173.204 175.5,170.5 Z"/></g>
<g><path style="opacity:1" fill="#94b132" d="M 185.5,176.5 C 200.019,179.92 211.686,187.587 220.5,199.5C 221.5,199.833 222.5,200.167 223.5,200.5C 233.917,198.084 244.25,195.418 254.5,192.5C 251.752,194.601 248.752,196.434 245.5,198C 239.383,198.823 233.383,200.157 227.5,202C 224.5,202.667 221.5,202.667 218.5,202C 212.531,197.033 206.865,191.699 201.5,186C 196.268,182.555 190.935,179.389 185.5,176.5 Z"/></g>
<g><path style="opacity:1" fill="#798d37" d="M 171.5,171.5 C 171.5,170.833 171.833,170.5 172.5,170.5C 173.5,170.5 174.5,170.5 175.5,170.5C 182.762,173.204 190.096,176.037 197.5,179C 207.847,183.583 216.347,190.417 223,199.5C 232.352,197.042 241.519,194.375 250.5,191.5C 255.613,190.573 260.613,189.24 265.5,187.5C 266.167,187.5 266.5,187.833 266.5,188.5C 265.833,188.833 265.167,189.167 264.5,189.5C 261.167,190.5 257.833,191.5 254.5,192.5C 244.25,195.418 233.917,198.084 223.5,200.5C 222.5,200.167 221.5,199.833 220.5,199.5C 211.686,187.587 200.019,179.92 185.5,176.5C 183.819,174.992 181.819,173.992 179.5,173.5C 176.833,172.833 174.167,172.167 171.5,171.5 Z"/></g>
<g><path style="opacity:1" fill="#adc73c" d="M 179.5,173.5 C 181.819,173.992 183.819,174.992 185.5,176.5C 190.935,179.389 196.268,182.555 201.5,186C 206.865,191.699 212.531,197.033 218.5,202C 221.5,202.667 224.5,202.667 227.5,202C 233.383,200.157 239.383,198.823 245.5,198C 248.752,196.434 251.752,194.601 254.5,192.5C 257.833,191.5 261.167,190.5 264.5,189.5C 257.515,194.326 249.848,198.159 241.5,201C 236.334,201.269 231.334,202.269 226.5,204C 223.5,204.667 220.5,204.667 217.5,204C 209.838,195.275 201.171,187.942 191.5,182C 185.594,181.574 181.594,178.741 179.5,173.5 Z"/></g>
<g><path style="opacity:1" fill="#d2e559" d="M 271.5,162.5 C 301.255,158.221 317.922,171.054 321.5,201C 321.245,215.697 314.579,226.197 301.5,232.5C 300.048,231.698 298.382,231.198 296.5,231C 300.371,228.174 303.871,225.007 307,221.5C 307.333,221.833 307.667,222.167 308,222.5C 312.01,218.48 315.01,213.813 317,208.5C 318.158,196.809 314.991,186.475 307.5,177.5C 297.275,168.049 285.275,163.049 271.5,162.5 Z"/></g>
<g><path style="opacity:1" fill="#66842e" d="M 127.5,177.5 C 131.476,190.093 136.81,202.093 143.5,213.5C 142.833,213.5 142.5,213.833 142.5,214.5C 140.833,211.833 139.167,209.167 137.5,206.5C 136.341,202.849 134.674,199.515 132.5,196.5C 130.957,191.743 129.124,187.076 127,182.5C 126.329,181.748 125.496,181.414 124.5,181.5C 125.026,179.77 126.026,178.436 127.5,177.5 Z"/></g>
<g><path style="opacity:1" fill="#6fa422" d="M 132.5,196.5 C 134.674,199.515 136.341,202.849 137.5,206.5C 138.013,210.553 138.846,214.553 140,218.5C 143.797,226.083 147.297,233.749 150.5,241.5C 150.182,242.647 149.516,243.481 148.5,244C 144.616,244.864 140.949,246.03 137.5,247.5C 134.436,248.707 131.269,249.707 128,250.5C 125.502,250.083 123.002,249.749 120.5,249.5C 116.827,248 113.494,246 110.5,243.5C 114.37,244.799 118.37,245.466 122.5,245.5C 122.649,244.448 122.483,243.448 122,242.5C 118.934,239.604 116.101,236.604 113.5,233.5C 112.752,229.188 112.086,224.854 111.5,220.5C 115.554,220.79 116.054,220.123 113,218.5C 111.719,219.647 111.386,219.313 112,217.5C 115.686,217.377 118.353,215.71 120,212.5C 121.295,213.841 121.795,215.174 121.5,216.5C 122.308,216.192 122.975,215.692 123.5,215C 122.269,213.817 122.269,212.651 123.5,211.5C 125.063,212.945 126.396,214.611 127.5,216.5C 128.427,215.094 129.427,213.594 130.5,212C 131.744,211.544 132.577,212.044 133,213.5C 133.309,212.234 133.809,211.067 134.5,210C 132.978,205.661 132.311,201.161 132.5,196.5 Z"/></g>
<g><path style="opacity:1" fill="#85b52d" d="M 117.5,186.5 C 119.716,186.275 121.383,187.108 122.5,189C 119,194.5 115.5,200 112,205.5C 110.512,213.445 110.178,221.445 111,229.5C 111.2,231.32 112.034,232.653 113.5,233.5C 116.101,236.604 118.934,239.604 122,242.5C 122.483,243.448 122.649,244.448 122.5,245.5C 118.37,245.466 114.37,244.799 110.5,243.5C 109.833,243.5 109.167,243.5 108.5,243.5C 105.611,240.744 103.444,237.411 102,233.5C 94.9138,213.593 100.08,197.926 117.5,186.5 Z"/></g>
<g><path style="opacity:1" fill="#81b627" d="M 185.5,243.5 C 186.5,244.833 187.5,246.167 188.5,247.5C 179.61,242.774 171.11,237.44 163,231.5C 162.536,232.094 162.369,232.761 162.5,233.5C 161.167,232.167 159.833,230.833 158.5,229.5C 156.217,226.044 153.717,222.71 151,219.5C 150.219,218.056 150.386,216.723 151.5,215.5C 160.604,221.92 169.271,229.087 177.5,237C 181.075,238.211 183.742,240.378 185.5,243.5 Z"/></g>
<g><path style="opacity:1" fill="#c6df56" d="M 335.5,171.5 C 336.173,188.569 336.84,205.735 337.5,223C 336.978,223.561 336.645,224.228 336.5,225C 337.75,230.699 338.583,236.199 339,241.5C 340.125,222.02 341.292,202.687 342.5,183.5C 342.667,226.501 342.5,269.501 342,312.5C 341.781,313.938 341.281,315.271 340.5,316.5C 339.109,314.39 338.442,312.057 338.5,309.5C 340.011,297.3 339.677,285.3 337.5,273.5C 335.765,239.528 335.099,205.528 335.5,171.5 Z"/></g>
<g><path style="opacity:1" fill="#a9cf43" d="M 112.5,193.5 C 113.649,193.791 114.316,194.624 114.5,196C 111.873,200.965 109.706,206.132 108,211.5C 106.783,219.478 107.783,227.144 111,234.5C 112.193,236.605 113.86,238.272 116,239.5C 116.483,240.448 116.649,241.448 116.5,242.5C 113.326,242.336 110.493,241.336 108,239.5C 96.5178,222.568 98.0178,207.235 112.5,193.5 Z"/></g>
<g><path style="opacity:1" fill="#bed845" d="M 335.5,264.5 C 335.817,268.702 335.483,272.702 334.5,276.5C 334.854,272.363 334.354,268.363 333,264.5C 331.783,277.75 330.45,291.083 329,304.5C 328.333,307.167 327.667,309.833 327,312.5C 326.097,313.701 324.931,314.535 323.5,315C 320.574,315.218 317.74,315.718 315,316.5C 308.938,315.242 302.771,314.409 296.5,314C 289.462,311.469 285.129,306.635 283.5,299.5C 282.325,299.719 281.325,299.386 280.5,298.5C 279.359,296.192 277.692,294.359 275.5,293C 275.833,292.667 276.167,292.333 276.5,292C 275.234,291.691 274.067,291.191 273,290.5C 270.116,285.452 267.949,280.119 266.5,274.5C 265.753,268.46 268.087,263.794 273.5,260.5C 274.362,259.234 275.029,257.901 275.5,256.5C 281.5,251.167 287.167,245.5 292.5,239.5C 294.181,237.992 296.181,236.992 298.5,236.5C 297.928,238.255 297.094,239.922 296,241.5C 288.14,248.027 280.973,255.194 274.5,263C 274.626,264.974 274.792,267.141 275,269.5C 276.487,270.253 276.654,271.086 275.5,272C 277.481,272.605 277.815,273.605 276.5,275C 278.401,277.653 280.734,279.82 283.5,281.5C 284.729,282.281 286.062,282.781 287.5,283C 286.692,283.308 286.025,283.808 285.5,284.5C 285.846,285.696 286.346,285.696 287,284.5C 287.249,285.624 287.749,286.624 288.5,287.5C 289.921,291.996 291.588,296.329 293.5,300.5C 294.552,300.351 295.552,300.517 296.5,301C 297.167,303 298.5,304.333 300.5,305C 300.043,305.414 299.709,305.914 299.5,306.5C 301.813,307.273 304.146,307.94 306.5,308.5C 308.768,307.456 311.101,307.289 313.5,308C 311.833,308.333 310.167,308.667 308.5,309C 309.766,309.309 310.933,309.809 312,310.5C 314.371,308.821 316.704,307.154 319,305.5C 319.667,306.167 320.333,306.833 321,307.5C 321.318,305.939 322.151,304.772 323.5,304C 322.833,303.667 322.167,303.333 321.5,303C 323.019,301.782 324.186,300.282 325,298.5C 325.34,294.442 326.007,290.442 327,286.5C 328.986,262.523 330.986,238.523 333,214.5C 334.253,231.147 335.086,247.814 335.5,264.5 Z"/></g>
<g><path style="opacity:1" fill="#4a7217" d="M 143.5,217.5 C 150.492,228.341 158.492,238.508 167.5,248C 166.429,248.852 165.429,249.685 164.5,250.5C 162.784,250.629 161.117,250.962 159.5,251.5C 161.081,249.858 161.747,247.858 161.5,245.5C 158.833,245.5 156.167,245.5 153.5,245.5C 153.579,242.729 153.079,240.063 152,237.5C 149.94,232.179 147.44,227.179 144.5,222.5C 143.954,220.865 143.62,219.199 143.5,217.5 Z"/></g>
<g><path style="opacity:1" fill="#c1dc49" d="M 157.5,168.5 C 158.167,168.5 158.5,168.833 158.5,169.5C 155.518,169.963 152.518,170.296 149.5,170.5C 149.338,172.527 149.505,174.527 150,176.5C 154.508,180.99 158.175,185.99 161,191.5C 167.833,199.167 174.667,206.833 181.5,214.5C 185.549,221.122 190.049,227.456 195,233.5C 198.292,235.933 201.959,237.6 206,238.5C 212.476,237.766 218.976,237.266 225.5,237C 237.937,233.37 250.437,229.87 263,226.5C 273.935,226.76 284.769,226.76 295.5,226.5C 296.167,226.667 296.833,226.833 297.5,227C 296.139,228.584 295.472,230.418 295.5,232.5C 297.5,232.5 299.5,232.5 301.5,232.5C 296.627,235.436 291.627,238.103 286.5,240.5C 285.833,240.5 285.167,240.5 284.5,240.5C 281.813,240.664 279.146,240.497 276.5,240C 275.027,239.29 274.36,238.124 274.5,236.5C 275.552,236.649 276.552,236.483 277.5,236C 274.835,234.799 272.002,233.965 269,233.5C 264.205,234.254 259.372,234.754 254.5,235C 236.337,238.018 218.337,241.685 200.5,246C 193.465,247.959 190.632,245.459 192,238.5C 182.762,223.939 172.095,210.606 160,198.5C 154.148,190.136 147.815,182.136 141,174.5C 140.59,173.099 140.09,171.766 139.5,170.5C 139.5,169.833 139.833,169.5 140.5,169.5C 146.138,168.78 151.804,168.447 157.5,168.5 Z"/></g>
<g><path style="opacity:1" fill="#accf3d" d="M 139.5,170.5 C 140.09,171.766 140.59,173.099 141,174.5C 147.815,182.136 154.148,190.136 160,198.5C 172.095,210.606 182.762,223.939 192,238.5C 190.632,245.459 193.465,247.959 200.5,246C 218.337,241.685 236.337,238.018 254.5,235C 259.372,234.754 264.205,234.254 269,233.5C 272.002,233.965 274.835,234.799 277.5,236C 276.552,236.483 275.552,236.649 274.5,236.5C 274.36,238.124 275.027,239.29 276.5,240C 279.146,240.497 281.813,240.664 284.5,240.5C 282.491,242.065 280.157,243.065 277.5,243.5C 273.519,244.021 269.519,244.354 265.5,244.5C 265.52,242.857 264.853,241.524 263.5,240.5C 260.833,240.167 258.167,239.833 255.5,239.5C 237.436,243.079 219.269,246.079 201,248.5C 198.833,248.333 196.667,248.167 194.5,248C 192.004,246.334 189.671,244.5 187.5,242.5C 186.001,239.953 184.501,237.286 183,234.5C 180.255,233.048 177.922,231.048 176,228.5C 172.967,223.628 170.133,218.628 167.5,213.5C 166.624,212.749 165.624,212.249 164.5,212C 153.222,199.566 142.555,186.733 132.5,173.5C 134.426,171.707 136.759,170.707 139.5,170.5 Z"/></g>
<g><path style="opacity:1" fill="#669521" d="M 158.5,235.5 C 159.239,235.369 159.906,235.536 160.5,236C 164.592,240.815 168.925,245.482 173.5,250C 179.379,252.766 184.712,256.266 189.5,260.5C 188.167,260.5 186.833,260.5 185.5,260.5C 174.945,253.949 165.945,245.616 158.5,235.5 Z"/></g>
<g><path style="opacity:1" fill="#98c033" d="M 277.5,243.5 C 275.064,244.871 272.397,245.871 269.5,246.5C 262.536,247.773 255.536,248.606 248.5,249C 252.101,247.389 255.435,245.389 258.5,243C 256.5,242.833 254.5,242.667 252.5,242.5C 242.098,243.9 231.765,245.734 221.5,248C 212.204,249.182 202.87,249.682 193.5,249.5C 191.833,248.833 190.167,248.167 188.5,247.5C 187.5,246.167 186.5,244.833 185.5,243.5C 186.492,243.672 187.158,243.338 187.5,242.5C 189.671,244.5 192.004,246.334 194.5,248C 196.667,248.167 198.833,248.333 201,248.5C 219.269,246.079 237.436,243.079 255.5,239.5C 258.167,239.833 260.833,240.167 263.5,240.5C 264.853,241.524 265.52,242.857 265.5,244.5C 269.519,244.354 273.519,244.021 277.5,243.5 Z"/></g>
<g><path style="opacity:1" fill="#86b32c" d="M 269.5,246.5 C 266.785,248.072 263.785,249.072 260.5,249.5C 249.786,252.219 238.953,254.552 228,256.5C 226.5,256.167 225,255.833 223.5,255.5C 225.184,254.85 226.517,253.85 227.5,252.5C 228.922,252.291 230.255,251.791 231.5,251C 232.696,250.346 232.696,249.846 231.5,249.5C 219.251,251.417 206.918,251.917 194.5,251C 193.944,250.617 193.611,250.117 193.5,249.5C 202.87,249.682 212.204,249.182 221.5,248C 231.765,245.734 242.098,243.9 252.5,242.5C 254.5,242.667 256.5,242.833 258.5,243C 255.435,245.389 252.101,247.389 248.5,249C 255.536,248.606 262.536,247.773 269.5,246.5 Z"/></g>
<g><path style="opacity:1" fill="#557f1b" d="M 137.5,206.5 C 139.167,209.167 140.833,211.833 142.5,214.5C 143.11,215.391 143.443,216.391 143.5,217.5C 143.62,219.199 143.954,220.865 144.5,222.5C 147.44,227.179 149.94,232.179 152,237.5C 153.079,240.063 153.579,242.729 153.5,245.5C 156.167,245.5 158.833,245.5 161.5,245.5C 161.747,247.858 161.081,249.858 159.5,251.5C 146.997,257.769 134.331,258.102 121.5,252.5C 116.335,250.662 112.001,247.662 108.5,243.5C 109.167,243.5 109.833,243.5 110.5,243.5C 113.494,246 116.827,248 120.5,249.5C 123.135,251.328 126.135,252.495 129.5,253C 135.833,253.667 142.167,253.667 148.5,253C 150.359,252.316 152.026,251.316 153.5,250C 147.956,250.003 142.622,249.169 137.5,247.5C 140.949,246.03 144.616,244.864 148.5,244C 149.516,243.481 150.182,242.647 150.5,241.5C 147.297,233.749 143.797,226.083 140,218.5C 138.846,214.553 138.013,210.553 137.5,206.5 Z"/></g>
<g><path style="opacity:1" fill="#699226" d="M 137.5,247.5 C 142.622,249.169 147.956,250.003 153.5,250C 152.026,251.316 150.359,252.316 148.5,253C 142.167,253.667 135.833,253.667 129.5,253C 126.135,252.495 123.135,251.328 120.5,249.5C 123.002,249.749 125.502,250.083 128,250.5C 131.269,249.707 134.436,248.707 137.5,247.5 Z"/></g>
<g><path style="opacity:1" fill="#83ad30" d="M 151.5,226.5 C 152.583,226.539 153.583,226.873 154.5,227.5C 155.327,229.162 156.493,230.495 158,231.5C 158.464,230.906 158.631,230.239 158.5,229.5C 159.833,230.833 161.167,232.167 162.5,233.5C 166.047,239.117 170.714,243.617 176.5,247C 183.423,249.795 190.09,253.128 196.5,257C 201.833,257.667 207.167,257.667 212.5,257C 217.609,255.572 222.609,254.072 227.5,252.5C 226.517,253.85 225.184,254.85 223.5,255.5C 225,255.833 226.5,256.167 228,256.5C 238.953,254.552 249.786,252.219 260.5,249.5C 252.118,252.767 243.451,255.434 234.5,257.5C 224.64,258.933 214.807,260.599 205,262.5C 199.748,262.394 194.581,261.727 189.5,260.5C 184.712,256.266 179.379,252.766 173.5,250C 168.925,245.482 164.592,240.815 160.5,236C 159.906,235.536 159.239,235.369 158.5,235.5C 155.815,232.81 153.482,229.81 151.5,226.5 Z"/></g>
<g><path style="opacity:1" fill="#71a225" d="M 188.5,247.5 C 190.167,248.167 191.833,248.833 193.5,249.5C 193.611,250.117 193.944,250.617 194.5,251C 206.918,251.917 219.251,251.417 231.5,249.5C 232.696,249.846 232.696,250.346 231.5,251C 230.255,251.791 228.922,252.291 227.5,252.5C 222.609,254.072 217.609,255.572 212.5,257C 207.167,257.667 201.833,257.667 196.5,257C 190.09,253.128 183.423,249.795 176.5,247C 170.714,243.617 166.047,239.117 162.5,233.5C 162.369,232.761 162.536,232.094 163,231.5C 171.11,237.44 179.61,242.774 188.5,247.5 Z"/></g>
<g><path style="opacity:1" fill="#546d26" d="M 143.5,213.5 C 145.916,218.001 148.583,222.334 151.5,226.5C 153.482,229.81 155.815,232.81 158.5,235.5C 165.945,245.616 174.945,253.949 185.5,260.5C 179.061,258.068 173.395,254.401 168.5,249.5C 167.264,250.246 165.93,250.579 164.5,250.5C 165.429,249.685 166.429,248.852 167.5,248C 158.492,238.508 150.492,228.341 143.5,217.5C 143.443,216.391 143.11,215.391 142.5,214.5C 142.5,213.833 142.833,213.5 143.5,213.5 Z"/></g>
<g><path style="opacity:1" fill="#517d19" d="M 264.5,250.5 C 260.035,253.795 255.701,257.295 251.5,261C 242.644,265.765 233.644,269.932 224.5,273.5C 218.981,274.509 213.648,276.009 208.5,278C 202.5,278.667 196.5,278.667 190.5,278C 185.999,276.284 181.665,274.118 177.5,271.5C 173.885,267.704 169.885,264.537 165.5,262C 156.517,262.384 147.517,262.384 138.5,262C 134.027,261.567 130.027,260.067 126.5,257.5C 124.927,257.752 123.594,258.418 122.5,259.5C 122.215,257.712 122.548,256.045 123.5,254.5C 132.952,257.664 142.618,258.331 152.5,256.5C 158.007,256.196 163.674,256.196 169.5,256.5C 170.02,260.536 172.02,263.703 175.5,266C 186.56,273.435 198.56,275.768 211.5,273C 219.466,271.181 226.8,268.014 233.5,263.5C 231.709,262.83 230.042,262.163 228.5,261.5C 240.593,258.143 252.593,254.477 264.5,250.5 Z"/></g>
<g><path style="opacity:1" fill="#5b7428" d="M 284.5,240.5 C 285.167,240.5 285.833,240.5 286.5,240.5C 287.167,240.5 287.5,240.833 287.5,241.5C 285.046,242.227 282.713,243.227 280.5,244.5C 278.5,245.167 276.5,245.833 274.5,246.5C 271.167,247.833 267.833,249.167 264.5,250.5C 252.593,254.477 240.593,258.143 228.5,261.5C 222.934,263.244 217.267,264.577 211.5,265.5C 219.027,262.435 226.694,259.769 234.5,257.5C 243.451,255.434 252.118,252.767 260.5,249.5C 263.785,249.072 266.785,248.072 269.5,246.5C 272.397,245.871 275.064,244.871 277.5,243.5C 280.157,243.065 282.491,242.065 284.5,240.5 Z"/></g>
<g><path style="opacity:1" fill="#4a7217" d="M 185.5,260.5 C 186.833,260.5 188.167,260.5 189.5,260.5C 192.245,263.038 195.578,264.538 199.5,265C 203.486,265.499 207.486,265.666 211.5,265.5C 217.267,264.577 222.934,263.244 228.5,261.5C 230.042,262.163 231.709,262.83 233.5,263.5C 226.8,268.014 219.466,271.181 211.5,273C 198.56,275.768 186.56,273.435 175.5,266C 172.02,263.703 170.02,260.536 169.5,256.5C 163.674,256.196 158.007,256.196 152.5,256.5C 156.588,254.692 160.588,252.692 164.5,250.5C 165.93,250.579 167.264,250.246 168.5,249.5C 173.395,254.401 179.061,258.068 185.5,260.5 Z"/></g>
<g><path style="opacity:1" fill="#659421" d="M 234.5,257.5 C 226.694,259.769 219.027,262.435 211.5,265.5C 207.486,265.666 203.486,265.499 199.5,265C 195.578,264.538 192.245,263.038 189.5,260.5C 194.581,261.727 199.748,262.394 205,262.5C 214.807,260.599 224.64,258.933 234.5,257.5 Z"/></g>
<g><path style="opacity:1" fill="#b6d43f" d="M 275.5,256.5 C 275.029,257.901 274.362,259.234 273.5,260.5C 268.087,263.794 265.753,268.46 266.5,274.5C 267.949,280.119 270.116,285.452 273,290.5C 274.067,291.191 275.234,291.691 276.5,292C 276.167,292.333 275.833,292.667 275.5,293C 277.692,294.359 279.359,296.192 280.5,298.5C 281.325,299.386 282.325,299.719 283.5,299.5C 285.129,306.635 289.462,311.469 296.5,314C 302.771,314.409 308.938,315.242 315,316.5C 317.74,315.718 320.574,315.218 323.5,315C 324.931,314.535 326.097,313.701 327,312.5C 327.667,309.833 328.333,307.167 329,304.5C 330.45,291.083 331.783,277.75 333,264.5C 334.354,268.363 334.854,272.363 334.5,276.5C 335.345,292.549 335.679,308.549 335.5,324.5C 334.833,324.167 334.167,323.833 333.5,323.5C 332.711,323.217 332.044,322.717 331.5,322C 311.221,319.579 290.888,317.912 270.5,317C 264.224,315.058 260.39,310.891 259,304.5C 255.996,299.824 252.996,295.157 250,290.5C 247.844,286.738 247.177,282.738 248,278.5C 250.495,275.172 253.329,272.172 256.5,269.5C 262.671,264.916 269.004,260.582 275.5,256.5 Z"/></g>
<g><path style="opacity:1" fill="#6aa01f" d="M 196.5,281.5 C 193.861,282.246 191.194,283.246 188.5,284.5C 187.304,284.154 187.304,283.654 188.5,283C 186.167,282.333 183.833,282.333 181.5,283C 182.167,283.333 182.833,283.667 183.5,284C 180.482,283.62 177.482,284.287 174.5,286C 176.256,286.202 177.922,286.702 179.5,287.5C 178.313,288.519 177.313,289.686 176.5,291C 177.167,291.333 177.833,291.667 178.5,292C 177.5,293 176.5,294 175.5,295C 177.433,295.251 179.266,295.751 181,296.5C 181.658,298.108 181.158,299.275 179.5,300C 181.107,301.049 181.773,302.549 181.5,304.5C 182.675,304.281 183.675,304.614 184.5,305.5C 183.41,306.609 183.41,307.609 184.5,308.5C 187.503,309.085 190.503,309.752 193.5,310.5C 193.833,311.167 194.167,311.833 194.5,312.5C 198.5,312.827 201.5,314.661 203.5,318C 206.264,318.006 208.264,319.172 209.5,321.5C 205.578,321.155 201.745,320.488 198,319.5C 197.439,320.022 196.772,320.355 196,320.5C 194.37,319.287 192.536,318.454 190.5,318C 189.631,315.421 187.965,313.588 185.5,312.5C 183.419,313.035 181.253,313.369 179,313.5C 177.214,311.901 175.047,311.067 172.5,311C 172.833,310 173.167,309 173.5,308C 172.167,307 170.833,306 169.5,305C 170.167,304.667 170.833,304.333 171.5,304C 169.697,303.363 168.364,302.197 167.5,300.5C 166.5,299.167 165.5,299.167 164.5,300.5C 163.833,299.833 163.167,299.167 162.5,298.5C 163.061,300.066 162.394,301.399 160.5,302.5C 159.316,300.954 158.316,299.287 157.5,297.5C 152.304,299.497 147.97,298.33 144.5,294C 145.672,293.581 146.672,292.915 147.5,292C 144.576,291.012 141.576,290.346 138.5,290C 140.595,289.444 140.762,288.944 139,288.5C 136.668,289.74 134.502,291.073 132.5,292.5C 132.1,301.831 132.1,311.164 132.5,320.5C 132.46,323.881 132.793,327.214 133.5,330.5C 131.306,328.779 130.139,326.445 130,323.5C 129.667,305.5 129.333,287.5 129,269.5C 128.388,266.968 126.888,266.135 124.5,267C 123.506,289.425 123.173,311.925 123.5,334.5C 122.662,334.158 122.328,333.492 122.5,332.5C 122.5,309.5 122.5,286.5 122.5,263.5C 123.838,261.887 125.505,261.387 127.5,262C 128.453,263.955 129.787,265.622 131.5,267C 141.601,267.96 151.601,267.46 161.5,265.5C 165.88,267.377 169.547,270.21 172.5,274C 177.59,276.628 182.757,279.128 188,281.5C 190.587,280.304 193.42,280.304 196.5,281.5 Z"/></g>
<g><path style="opacity:1" fill="#60941d" d="M 224.5,273.5 C 215.663,277.552 206.33,280.219 196.5,281.5C 193.42,280.304 190.587,280.304 188,281.5C 182.757,279.128 177.59,276.628 172.5,274C 169.547,270.21 165.88,267.377 161.5,265.5C 151.601,267.46 141.601,267.96 131.5,267C 129.787,265.622 128.453,263.955 127.5,262C 125.505,261.387 123.838,261.887 122.5,263.5C 122.5,262.167 122.5,260.833 122.5,259.5C 123.594,258.418 124.927,257.752 126.5,257.5C 130.027,260.067 134.027,261.567 138.5,262C 147.517,262.384 156.517,262.384 165.5,262C 169.885,264.537 173.885,267.704 177.5,271.5C 181.665,274.118 185.999,276.284 190.5,278C 196.5,278.667 202.5,278.667 208.5,278C 213.648,276.009 218.981,274.509 224.5,273.5 Z"/></g>
<g><path style="opacity:1" fill="#9ec234" d="M 287.5,241.5 C 287.631,242.239 287.464,242.906 287,243.5C 272.661,256.114 257.495,267.614 241.5,278C 239.044,280.367 238.211,283.2 239,286.5C 246.125,296.942 252.792,307.608 259,318.5C 260.579,320.041 262.413,321.208 264.5,322C 286.566,319.526 308.566,320.193 330.5,324C 333.375,327.537 334.375,327.37 333.5,323.5C 334.167,323.833 334.833,324.167 335.5,324.5C 336.838,326.113 338.505,326.613 340.5,326C 342.624,323.436 343.958,320.603 344.5,317.5C 344.733,322.034 343.9,326.368 342,330.5C 339.92,332.993 338.086,335.659 336.5,338.5C 335.272,340.321 333.606,341.321 331.5,341.5C 328.622,339.895 325.622,338.561 322.5,337.5C 322.5,337.167 322.5,336.833 322.5,336.5C 325.175,334.423 327.842,332.256 330.5,330C 329.499,326.664 327.499,325.831 324.5,327.5C 305.162,321.787 285.662,321.12 266,325.5C 262.988,325.274 260.155,324.441 257.5,323C 251.315,315.079 245.815,306.912 241,298.5C 238.425,295.681 236.092,292.681 234,289.5C 231.132,283.54 232.632,279.04 238.5,276C 243.63,275.628 246.964,273.128 248.5,268.5C 254.956,264.254 261.623,260.088 268.5,256C 272.369,251.963 276.369,248.13 280.5,244.5C 282.713,243.227 285.046,242.227 287.5,241.5 Z"/></g>
<g><path style="opacity:1" fill="#a9cb38" d="M 292.5,239.5 C 287.167,245.5 281.5,251.167 275.5,256.5C 269.004,260.582 262.671,264.916 256.5,269.5C 253.329,272.172 250.495,275.172 248,278.5C 247.177,282.738 247.844,286.738 250,290.5C 252.996,295.157 255.996,299.824 259,304.5C 260.39,310.891 264.224,315.058 270.5,317C 290.888,317.912 311.221,319.579 331.5,322C 332.044,322.717 332.711,323.217 333.5,323.5C 334.375,327.37 333.375,327.537 330.5,324C 308.566,320.193 286.566,319.526 264.5,322C 262.413,321.208 260.579,320.041 259,318.5C 252.792,307.608 246.125,296.942 239,286.5C 238.211,283.2 239.044,280.367 241.5,278C 257.495,267.614 272.661,256.114 287,243.5C 287.464,242.906 287.631,242.239 287.5,241.5C 289.05,240.559 290.716,239.893 292.5,239.5 Z"/></g>
<g><path style="opacity:1" fill="#81af27" d="M 280.5,244.5 C 276.369,248.13 272.369,251.963 268.5,256C 261.623,260.088 254.956,264.254 248.5,268.5C 240.824,271.17 233.491,274.67 226.5,279C 225.123,281.333 224.123,283.833 223.5,286.5C 233.868,297.562 243.034,309.562 251,322.5C 254.595,326.545 259.095,328.212 264.5,327.5C 273.109,326.066 281.776,325.066 290.5,324.5C 295.934,324.431 301.268,325.098 306.5,326.5C 303.766,328.357 303.099,330.691 304.5,333.5C 300.944,333.358 297.61,332.524 294.5,331C 296.228,329.274 298.228,327.941 300.5,327C 294.881,325.701 289.214,325.368 283.5,326C 275.514,328.538 267.347,330.371 259,331.5C 255.68,330.832 252.513,329.665 249.5,328C 243.545,321.341 237.545,314.674 231.5,308C 227.751,305.258 224.251,302.091 221,298.5C 220.667,299.167 220.333,299.833 220,300.5C 214.359,295.66 213.192,289.993 216.5,283.5C 221.145,279.428 226.145,276.094 231.5,273.5C 245.389,266.139 259.056,258.306 272.5,250C 273.823,249.184 274.489,248.017 274.5,246.5C 276.5,245.833 278.5,245.167 280.5,244.5 Z"/></g>
<g><path style="opacity:1" fill="#74a623" d="M 231.5,273.5 C 226.145,276.094 221.145,279.428 216.5,283.5C 213.192,289.993 214.359,295.66 220,300.5C 220.333,299.833 220.667,299.167 221,298.5C 224.251,302.091 227.751,305.258 231.5,308C 237.545,314.674 243.545,321.341 249.5,328C 252.513,329.665 255.68,330.832 259,331.5C 267.347,330.371 275.514,328.538 283.5,326C 289.214,325.368 294.881,325.701 300.5,327C 298.228,327.941 296.228,329.274 294.5,331C 297.61,332.524 300.944,333.358 304.5,333.5C 310.539,334.284 316.539,335.284 322.5,336.5C 322.5,336.833 322.5,337.167 322.5,337.5C 321.833,337.5 321.5,337.833 321.5,338.5C 316.821,338.334 312.155,338.501 307.5,339C 305.833,340 304.167,341 302.5,342C 293.989,344.229 285.655,346.729 277.5,349.5C 283.076,345.33 289.409,342.497 296.5,341C 300.268,339.188 303.934,337.188 307.5,335C 300.808,334.169 294.142,334.336 287.5,335.5C 279.518,337.214 272.185,340.381 265.5,345C 264.167,345.667 262.833,345.667 261.5,345C 264.978,338.187 270.312,333.52 277.5,331C 271.333,331.89 265.166,333.057 259,334.5C 254.939,334.89 250.773,334.39 246.5,333C 240.096,330.461 234.763,326.461 230.5,321C 227.347,320.062 224.514,318.562 222,316.5C 220.612,317.554 219.112,317.72 217.5,317C 216.449,315.615 215.116,314.615 213.5,314C 211.048,313.71 208.715,313.044 206.5,312C 206.833,311.667 207.167,311.333 207.5,311C 203.702,308.704 200.036,306.204 196.5,303.5C 195.707,304.355 196.04,305.189 197.5,306C 195.82,306.034 194.32,306.201 193,306.5C 192.208,304.413 191.041,302.579 189.5,301C 189.833,300.667 190.167,300.333 190.5,300C 188.442,296.603 185.442,294.937 181.5,295C 182.357,294.311 183.023,293.478 183.5,292.5C 182.97,290.756 182.97,289.256 183.5,288C 184.333,287.167 185.167,286.333 186,285.5C 189.238,285.271 192.571,285.271 196,285.5C 207.605,280.808 219.438,276.808 231.5,273.5 Z"/></g>
<g><path style="opacity:0.949" fill="#546828" d="M 164.5,250.5 C 160.588,252.692 156.588,254.692 152.5,256.5C 142.618,258.331 132.952,257.664 123.5,254.5C 122.548,256.045 122.215,257.712 122.5,259.5C 122.5,260.833 122.5,262.167 122.5,263.5C 122.5,286.5 122.5,309.5 122.5,332.5C 121.566,331.432 121.232,330.099 121.5,328.5C 121.5,303.167 121.5,277.833 121.5,252.5C 134.331,258.102 146.997,257.769 159.5,251.5C 161.117,250.962 162.784,250.629 164.5,250.5 Z"/></g>
<g><path style="opacity:1" fill="#65991e" d="M 209.5,321.5 C 210.058,322.79 211.058,323.623 212.5,324C 211.833,324.333 211.167,324.667 210.5,325C 213.167,325.333 215.833,325.667 218.5,326C 219.833,326.667 220.833,327.667 221.5,329C 226.355,329.842 230.189,332.342 233,336.5C 234.245,336.539 235.578,336.205 237,335.5C 240.318,336.99 243.818,337.656 247.5,337.5C 253.354,336.607 259.021,336.44 264.5,337C 260.72,340.782 257.72,345.116 255.5,350C 256.094,350.464 256.761,350.631 257.5,350.5C 256.713,352.104 255.38,352.771 253.5,352.5C 253.336,349.813 253.503,347.146 254,344.5C 255.678,343.534 256.345,342.201 256,340.5C 251.167,342.531 246.167,344.864 241,347.5C 240.333,346.833 239.667,346.167 239,345.5C 236.741,346.536 234.408,346.536 232,345.5C 227.618,342.713 223.451,339.547 219.5,336C 215.344,336.052 211.51,335.219 208,333.5C 205.806,336.017 203.806,335.684 202,332.5C 200.242,333.469 199.742,334.636 200.5,336C 199.175,335.852 198.008,336.018 197,336.5C 194.426,335.151 191.76,333.151 189,330.5C 183.976,331.675 179.81,330.175 176.5,326C 174.899,325.727 173.399,325.227 172,324.5C 171,324.833 170,325.167 169,325.5C 168.691,324.234 168.191,323.067 167.5,322C 165.341,321.088 163.175,320.255 161,319.5C 158.974,320.019 156.974,320.353 155,320.5C 153.406,319.284 151.906,317.951 150.5,316.5C 149.325,317.855 148.325,317.688 147.5,316C 147.833,315.667 148.167,315.333 148.5,315C 145.167,313.833 141.833,312.667 138.5,311.5C 133.473,312.337 131.473,315.337 132.5,320.5C 132.1,311.164 132.1,301.831 132.5,292.5C 134.502,291.073 136.668,289.74 139,288.5C 140.762,288.944 140.595,289.444 138.5,290C 141.576,290.346 144.576,291.012 147.5,292C 146.672,292.915 145.672,293.581 144.5,294C 147.97,298.33 152.304,299.497 157.5,297.5C 158.316,299.287 159.316,300.954 160.5,302.5C 162.394,301.399 163.061,300.066 162.5,298.5C 163.167,299.167 163.833,299.833 164.5,300.5C 165.5,299.167 166.5,299.167 167.5,300.5C 168.364,302.197 169.697,303.363 171.5,304C 170.833,304.333 170.167,304.667 169.5,305C 170.833,306 172.167,307 173.5,308C 173.167,309 172.833,310 172.5,311C 175.047,311.067 177.214,311.901 179,313.5C 181.253,313.369 183.419,313.035 185.5,312.5C 187.965,313.588 189.631,315.421 190.5,318C 192.536,318.454 194.37,319.287 196,320.5C 196.772,320.355 197.439,320.022 198,319.5C 201.745,320.488 205.578,321.155 209.5,321.5 Z"/></g>
<g><path style="opacity:1" fill="#6e9f22" d="M 274.5,246.5 C 274.489,248.017 273.823,249.184 272.5,250C 259.056,258.306 245.389,266.139 231.5,273.5C 219.438,276.808 207.605,280.808 196,285.5C 192.571,285.271 189.238,285.271 186,285.5C 185.167,286.333 184.333,287.167 183.5,288C 182.97,289.256 182.97,290.756 183.5,292.5C 183.023,293.478 182.357,294.311 181.5,295C 185.442,294.937 188.442,296.603 190.5,300C 190.167,300.333 189.833,300.667 189.5,301C 191.041,302.579 192.208,304.413 193,306.5C 194.32,306.201 195.82,306.034 197.5,306C 196.04,305.189 195.707,304.355 196.5,303.5C 200.036,306.204 203.702,308.704 207.5,311C 207.167,311.333 206.833,311.667 206.5,312C 208.715,313.044 211.048,313.71 213.5,314C 215.116,314.615 216.449,315.615 217.5,317C 219.112,317.72 220.612,317.554 222,316.5C 224.514,318.562 227.347,320.062 230.5,321C 234.763,326.461 240.096,330.461 246.5,333C 250.773,334.39 254.939,334.89 259,334.5C 265.166,333.057 271.333,331.89 277.5,331C 270.312,333.52 264.978,338.187 261.5,345C 262.833,345.667 264.167,345.667 265.5,345C 272.185,340.381 279.518,337.214 287.5,335.5C 294.142,334.336 300.808,334.169 307.5,335C 303.934,337.188 300.268,339.188 296.5,341C 289.409,342.497 283.076,345.33 277.5,349.5C 269.089,352.551 265.923,358.551 268,367.5C 276.778,386.204 286.111,404.537 296,422.5C 297.509,425.329 297.675,428.162 296.5,431C 291.554,432.161 286.554,432.994 281.5,433.5C 281.081,436.325 282.081,438.491 284.5,440C 288.707,442.34 293.041,444.174 297.5,445.5C 286.32,444.6 278.32,439.266 273.5,429.5C 279.842,429.666 286.175,429.5 292.5,429C 293.022,428.439 293.355,427.772 293.5,427C 288.594,416.113 283.594,405.28 278.5,394.5C 277.758,393.713 276.925,393.047 276,392.5C 274.917,386.725 272.084,382.058 267.5,378.5C 265.11,376.266 263.276,373.599 262,370.5C 261.855,366.963 261.022,363.629 259.5,360.5C 258.476,361.853 257.143,362.52 255.5,362.5C 252.798,373.023 255.131,382.023 262.5,389.5C 264.098,396.105 264.931,402.772 265,409.5C 260.757,401.112 257.09,392.446 254,383.5C 252.574,381.234 250.74,379.568 248.5,378.5C 248.672,377.508 248.338,376.842 247.5,376.5C 246.54,370.691 247.874,365.357 251.5,360.5C 254.03,357.312 256.696,354.145 259.5,351C 258.906,350.536 258.239,350.369 257.5,350.5C 256.761,350.631 256.094,350.464 255.5,350C 257.72,345.116 260.72,340.782 264.5,337C 259.021,336.44 253.354,336.607 247.5,337.5C 243.818,337.656 240.318,336.99 237,335.5C 235.578,336.205 234.245,336.539 233,336.5C 230.189,332.342 226.355,329.842 221.5,329C 220.833,327.667 219.833,326.667 218.5,326C 215.833,325.667 213.167,325.333 210.5,325C 211.167,324.667 211.833,324.333 212.5,324C 211.058,323.623 210.058,322.79 209.5,321.5C 208.264,319.172 206.264,318.006 203.5,318C 201.5,314.661 198.5,312.827 194.5,312.5C 194.167,311.833 193.833,311.167 193.5,310.5C 190.503,309.752 187.503,309.085 184.5,308.5C 183.41,307.609 183.41,306.609 184.5,305.5C 183.675,304.614 182.675,304.281 181.5,304.5C 181.773,302.549 181.107,301.049 179.5,300C 181.158,299.275 181.658,298.108 181,296.5C 179.266,295.751 177.433,295.251 175.5,295C 176.5,294 177.5,293 178.5,292C 177.833,291.667 177.167,291.333 176.5,291C 177.313,289.686 178.313,288.519 179.5,287.5C 177.922,286.702 176.256,286.202 174.5,286C 177.482,284.287 180.482,283.62 183.5,284C 182.833,283.667 182.167,283.333 181.5,283C 183.833,282.333 186.167,282.333 188.5,283C 187.304,283.654 187.304,284.154 188.5,284.5C 191.194,283.246 193.861,282.246 196.5,281.5C 206.33,280.219 215.663,277.552 224.5,273.5C 233.644,269.932 242.644,265.765 251.5,261C 255.701,257.295 260.035,253.795 264.5,250.5C 267.833,249.167 271.167,247.833 274.5,246.5 Z"/></g>
<g><path style="opacity:1" fill="#bad649" d="M 339.5,165.5 C 341.914,166.911 343.581,168.911 344.5,171.5C 344.5,220.167 344.5,268.833 344.5,317.5C 343.958,320.603 342.624,323.436 340.5,326C 338.505,326.613 336.838,326.113 335.5,324.5C 335.679,308.549 335.345,292.549 334.5,276.5C 335.483,272.702 335.817,268.702 335.5,264.5C 336.167,267.5 336.833,270.5 337.5,273.5C 339.677,285.3 340.011,297.3 338.5,309.5C 338.442,312.057 339.109,314.39 340.5,316.5C 341.281,315.271 341.781,313.938 342,312.5C 342.5,269.501 342.667,226.501 342.5,183.5C 343.07,177.142 342.07,171.142 339.5,165.5 Z"/></g>
<g><path style="opacity:1" fill="#8fbb33" d="M 133.5,330.5 C 133.343,331.873 133.51,333.207 134,334.5C 137.833,339 141.667,343.5 145.5,348C 137.663,346.517 131.329,342.517 126.5,336C 125.552,335.517 124.552,335.351 123.5,335.5C 123.5,335.167 123.5,334.833 123.5,334.5C 123.173,311.925 123.506,289.425 124.5,267C 126.888,266.135 128.388,266.968 129,269.5C 129.333,287.5 129.667,305.5 130,323.5C 130.139,326.445 131.306,328.779 133.5,330.5 Z"/></g>
<g><path style="opacity:1" fill="#60931c" d="M 257.5,350.5 C 258.239,350.369 258.906,350.536 259.5,351C 256.696,354.145 254.03,357.312 251.5,360.5C 251.19,359.262 250.69,359.262 250,360.5C 247.189,364.766 245.689,369.433 245.5,374.5C 242.167,374.5 238.833,374.5 235.5,374.5C 235.499,370.794 237.165,368.461 240.5,367.5C 240.02,363.694 241.02,360.361 243.5,357.5C 242.897,356.365 242.564,355.365 242.5,354.5C 241.833,355.167 241.167,355.833 240.5,356.5C 239.575,355.359 238.741,355.359 238,356.5C 231.082,352.53 223.582,350.363 215.5,350C 213.96,348.149 212.46,346.982 211,346.5C 210.107,347.081 209.107,347.415 208,347.5C 202.567,346.23 197.067,345.396 191.5,345C 188.873,343.69 186.54,342.023 184.5,340C 182.236,339.764 180.069,339.264 178,338.5C 177.667,338.833 177.333,339.167 177,339.5C 174.796,337.983 172.462,336.65 170,335.5C 167.534,336.777 165.034,336.777 162.5,335.5C 159.391,332.532 155.891,330.199 152,328.5C 151.439,329.022 150.772,329.355 150,329.5C 148.989,329.108 148.489,328.441 148.5,327.5C 147.808,328.025 147.308,328.692 147,329.5C 146.259,328.359 145.425,328.359 144.5,329.5C 143.289,328.726 143.289,327.893 144.5,327C 141.883,326.178 139.216,325.678 136.5,325.5C 136.338,327.527 136.505,329.527 137,331.5C 138.421,333.405 139.588,335.405 140.5,337.5C 137.954,335.436 135.621,333.103 133.5,330.5C 132.793,327.214 132.46,323.881 132.5,320.5C 131.473,315.337 133.473,312.337 138.5,311.5C 141.833,312.667 145.167,313.833 148.5,315C 148.167,315.333 147.833,315.667 147.5,316C 148.325,317.688 149.325,317.855 150.5,316.5C 151.906,317.951 153.406,319.284 155,320.5C 156.974,320.353 158.974,320.019 161,319.5C 163.175,320.255 165.341,321.088 167.5,322C 168.191,323.067 168.691,324.234 169,325.5C 170,325.167 171,324.833 172,324.5C 173.399,325.227 174.899,325.727 176.5,326C 179.81,330.175 183.976,331.675 189,330.5C 191.76,333.151 194.426,335.151 197,336.5C 198.008,336.018 199.175,335.852 200.5,336C 199.742,334.636 200.242,333.469 202,332.5C 203.806,335.684 205.806,336.017 208,333.5C 211.51,335.219 215.344,336.052 219.5,336C 223.451,339.547 227.618,342.713 232,345.5C 234.408,346.536 236.741,346.536 239,345.5C 239.667,346.167 240.333,346.833 241,347.5C 246.167,344.864 251.167,342.531 256,340.5C 256.345,342.201 255.678,343.534 254,344.5C 253.503,347.146 253.336,349.813 253.5,352.5C 255.38,352.771 256.713,352.104 257.5,350.5 Z"/></g>
<g><path style="opacity:1" fill="#5b8d1b" d="M 235.5,374.5 C 229.5,374.5 223.5,374.5 217.5,374.5C 205.351,373.87 193.351,372.203 181.5,369.5C 179.5,368.5 177.5,367.5 175.5,366.5C 182.973,366.7 190.306,367.867 197.5,370C 200.833,370.667 204.167,370.667 207.5,370C 200.654,366.709 193.654,363.876 186.5,361.5C 180.024,360.268 173.69,358.435 167.5,356C 160.737,351.568 153.737,347.568 146.5,344C 144.294,341.963 142.294,339.797 140.5,337.5C 139.588,335.405 138.421,333.405 137,331.5C 136.505,329.527 136.338,327.527 136.5,325.5C 139.216,325.678 141.883,326.178 144.5,327C 143.289,327.893 143.289,328.726 144.5,329.5C 145.425,328.359 146.259,328.359 147,329.5C 147.308,328.692 147.808,328.025 148.5,327.5C 148.489,328.441 148.989,329.108 150,329.5C 150.772,329.355 151.439,329.022 152,328.5C 155.891,330.199 159.391,332.532 162.5,335.5C 165.034,336.777 167.534,336.777 170,335.5C 172.462,336.65 174.796,337.983 177,339.5C 177.333,339.167 177.667,338.833 178,338.5C 180.069,339.264 182.236,339.764 184.5,340C 186.54,342.023 188.873,343.69 191.5,345C 197.067,345.396 202.567,346.23 208,347.5C 209.107,347.415 210.107,347.081 211,346.5C 212.46,346.982 213.96,348.149 215.5,350C 223.582,350.363 231.082,352.53 238,356.5C 238.741,355.359 239.575,355.359 240.5,356.5C 241.167,355.833 241.833,355.167 242.5,354.5C 242.564,355.365 242.897,356.365 243.5,357.5C 241.02,360.361 240.02,363.694 240.5,367.5C 237.165,368.461 235.499,370.794 235.5,374.5 Z"/></g>
<g><path style="opacity:1" fill="#8fb92d" d="M 248.5,268.5 C 246.964,273.128 243.63,275.628 238.5,276C 232.632,279.04 231.132,283.54 234,289.5C 236.092,292.681 238.425,295.681 241,298.5C 245.815,306.912 251.315,315.079 257.5,323C 260.155,324.441 262.988,325.274 266,325.5C 285.662,321.12 305.162,321.787 324.5,327.5C 327.499,325.831 329.499,326.664 330.5,330C 327.842,332.256 325.175,334.423 322.5,336.5C 316.539,335.284 310.539,334.284 304.5,333.5C 303.099,330.691 303.766,328.357 306.5,326.5C 301.268,325.098 295.934,324.431 290.5,324.5C 281.776,325.066 273.109,326.066 264.5,327.5C 259.095,328.212 254.595,326.545 251,322.5C 243.034,309.562 233.868,297.562 223.5,286.5C 224.123,283.833 225.123,281.333 226.5,279C 233.491,274.67 240.824,271.17 248.5,268.5 Z"/></g>
<g><path style="opacity:1" fill="#88ad32" d="M 344.5,171.5 C 345.497,193.994 345.831,216.661 345.5,239.5C 345.667,270.168 345.5,300.835 345,331.5C 343.789,336.926 341.289,341.593 337.5,345.5C 334.708,345.378 332.708,344.044 331.5,341.5C 333.606,341.321 335.272,340.321 336.5,338.5C 338.086,335.659 339.92,332.993 342,330.5C 343.9,326.368 344.733,322.034 344.5,317.5C 344.5,268.833 344.5,220.167 344.5,171.5 Z"/></g>
<g><path style="opacity:1" fill="#647e28" d="M 321.5,338.5 C 321.5,337.833 321.833,337.5 322.5,337.5C 325.622,338.561 328.622,339.895 331.5,341.5C 332.708,344.044 334.708,345.378 337.5,345.5C 336.032,346.779 335.365,348.446 335.5,350.5C 333.495,344.834 329.495,341.168 323.5,339.5C 323.158,338.662 322.492,338.328 321.5,338.5 Z"/></g>
<g><path style="opacity:1" fill="#558619" d="M 186.5,361.5 C 175.886,357.564 165.719,352.564 156,346.5C 155.568,345.4 156.068,344.733 157.5,344.5C 162.848,345.224 168.181,346.057 173.5,347C 174.328,347.915 175.328,348.581 176.5,349C 176.167,349.333 175.833,349.667 175.5,350C 177.5,351 179.5,352 181.5,353C 187.167,353.333 192.833,353.667 198.5,354C 207.662,356.578 216.995,358.578 226.5,360C 228.536,360.454 230.37,361.287 232,362.5C 232.772,362.355 233.439,362.022 234,361.5C 235.629,362.565 236.796,363.899 237.5,365.5C 235.343,366.79 233.01,367.624 230.5,368C 224.167,368.667 217.833,368.667 211.5,368C 203.48,364.771 195.147,362.605 186.5,361.5 Z"/></g>
<g><path style="opacity:1" fill="#567f1d" d="M 125.5,339.5 C 132.562,344.881 139.896,350.048 147.5,355C 156.962,358.759 166.296,362.592 175.5,366.5C 164.414,364.027 153.747,360.36 143.5,355.5C 139.68,352.53 135.68,349.696 131.5,347C 128.906,344.914 126.906,342.414 125.5,339.5 Z"/></g>
<g><path style="opacity:1" fill="#465b1b" d="M 143.5,355.5 C 153.747,360.36 164.414,364.027 175.5,366.5C 177.5,367.5 179.5,368.5 181.5,369.5C 175.632,368.927 169.966,367.594 164.5,365.5C 162.321,364.323 159.987,363.323 157.5,362.5C 152.368,360.913 147.702,358.579 143.5,355.5 Z"/></g>
<g><path style="opacity:0.799" fill="#495922" d="M 120.5,328.5 C 120.833,328.5 121.167,328.5 121.5,328.5C 121.232,330.099 121.566,331.432 122.5,332.5C 122.328,333.492 122.662,334.158 123.5,334.5C 123.5,334.833 123.5,335.167 123.5,335.5C 124.167,336.833 124.833,338.167 125.5,339.5C 126.906,342.414 128.906,344.914 131.5,347C 135.68,349.696 139.68,352.53 143.5,355.5C 142.417,355.461 141.417,355.127 140.5,354.5C 139.731,358.425 140.398,362.092 142.5,365.5C 145.566,379.108 149.233,392.441 153.5,405.5C 153.667,411.365 155.333,416.699 158.5,421.5C 157.504,421.586 156.671,421.252 156,420.5C 154.178,416.843 152.678,413.176 151.5,409.5C 151.672,408.508 151.338,407.842 150.5,407.5C 146.153,389.617 141.486,371.784 136.5,354C 131.355,350.189 126.855,345.689 123,340.5C 121.011,336.747 120.178,332.747 120.5,328.5 Z"/></g>
<g><path style="opacity:1" fill="#729e28" d="M 133.5,330.5 C 135.621,333.103 137.954,335.436 140.5,337.5C 142.294,339.797 144.294,341.963 146.5,344C 153.737,347.568 160.737,351.568 167.5,356C 173.69,358.435 180.024,360.268 186.5,361.5C 193.654,363.876 200.654,366.709 207.5,370C 204.167,370.667 200.833,370.667 197.5,370C 190.306,367.867 182.973,366.7 175.5,366.5C 166.296,362.592 156.962,358.759 147.5,355C 139.896,350.048 132.562,344.881 125.5,339.5C 124.833,338.167 124.167,336.833 123.5,335.5C 124.552,335.351 125.552,335.517 126.5,336C 131.329,342.517 137.663,346.517 145.5,348C 141.667,343.5 137.833,339 134,334.5C 133.51,333.207 133.343,331.873 133.5,330.5 Z"/></g>
<g><path style="opacity:1" fill="#426713" d="M 143.5,355.5 C 147.702,358.579 152.368,360.913 157.5,362.5C 154.479,363.028 152.812,364.861 152.5,368C 155.627,378.191 159.293,387.691 163.5,396.5C 164.318,394.892 164.985,393.225 165.5,391.5C 164.975,390.808 164.308,390.308 163.5,390C 165.004,388.509 165.837,386.676 166,384.5C 167.594,383.284 169.094,381.951 170.5,380.5C 175.15,377.761 180.15,375.761 185.5,374.5C 178.036,371.178 170.369,368.344 162.5,366C 163.094,365.536 163.761,365.369 164.5,365.5C 169.966,367.594 175.632,368.927 181.5,369.5C 193.374,373.583 205.707,375.916 218.5,376.5C 222.271,379.516 222.438,382.849 219,386.5C 208.739,386.013 198.073,384.68 187,382.5C 183.515,383.116 179.682,383.616 175.5,384C 173.457,386.009 171.457,388.009 169.5,390C 170.421,395.443 171.087,400.943 171.5,406.5C 170.95,410.024 169.116,411.024 166,409.5C 163.776,404.4 161.61,399.4 159.5,394.5C 155.879,384.625 151.379,374.958 146,365.5C 144.855,364.316 143.688,364.316 142.5,365.5C 140.398,362.092 139.731,358.425 140.5,354.5C 141.417,355.127 142.417,355.461 143.5,355.5 Z"/></g>
<g><path style="opacity:1" fill="#54721f" d="M 251.5,360.5 C 247.874,365.357 246.54,370.691 247.5,376.5C 237.401,375.856 227.401,375.189 217.5,374.5C 223.5,374.5 229.5,374.5 235.5,374.5C 238.833,374.5 242.167,374.5 245.5,374.5C 245.689,369.433 247.189,364.766 250,360.5C 250.69,359.262 251.19,359.262 251.5,360.5 Z"/></g>
<g><path style="opacity:1" fill="#3e6012" d="M 157.5,362.5 C 159.987,363.323 162.321,364.323 164.5,365.5C 163.761,365.369 163.094,365.536 162.5,366C 170.369,368.344 178.036,371.178 185.5,374.5C 180.15,375.761 175.15,377.761 170.5,380.5C 169.094,381.951 167.594,383.284 166,384.5C 165.837,386.676 165.004,388.509 163.5,390C 164.308,390.308 164.975,390.808 165.5,391.5C 164.985,393.225 164.318,394.892 163.5,396.5C 159.293,387.691 155.627,378.191 152.5,368C 152.812,364.861 154.479,363.028 157.5,362.5 Z"/></g>
<g><path style="opacity:1" fill="#5d8d1b" d="M 267.5,378.5 C 270.634,386.481 274.467,394.148 279,401.5C 280.541,407.57 282.874,413.237 286,418.5C 286.495,420.473 286.662,422.473 286.5,424.5C 282.713,425.186 279.546,424.186 277,421.5C 271.737,410.828 266.903,400.161 262.5,389.5C 255.131,382.023 252.798,373.023 255.5,362.5C 257.143,362.52 258.476,361.853 259.5,360.5C 261.022,363.629 261.855,366.963 262,370.5C 263.276,373.599 265.11,376.266 267.5,378.5 Z"/></g>
<g><path style="opacity:1" fill="#9fc135" d="M 323.5,339.5 C 329.495,341.168 333.495,344.834 335.5,350.5C 336.314,361.821 336.981,373.155 337.5,384.5C 336.833,385.833 336.167,387.167 335.5,388.5C 335.865,376.453 335.365,364.453 334,352.5C 332.249,350.51 331.249,348.177 331,345.5C 327.561,341.629 323.394,340.629 318.5,342.5C 319.711,343.72 319.711,344.887 318.5,346C 311.193,346.95 303.86,347.617 296.5,348C 292.488,350.449 288.155,352.116 283.5,353C 280.493,355.166 278.493,357.999 277.5,361.5C 285.253,376.005 292.753,390.672 300,405.5C 303.5,410.5 307,415.5 310.5,420.5C 317.541,427.909 322.875,426.742 326.5,417C 327.744,416.544 328.577,417.044 329,418.5C 330.277,422.097 330.61,425.764 330,429.5C 329.439,430.022 328.772,430.355 328,430.5C 324.543,429.093 321.043,428.26 317.5,428C 315.089,429.955 312.589,431.789 310,433.5C 308.557,437.495 310.057,440.328 314.5,442C 322.17,443.208 329.003,441.375 335,436.5C 336.044,434.285 336.71,431.952 337,429.5C 337.5,422.842 337.666,416.175 337.5,409.5C 338.893,418.387 338.726,427.387 337,436.5C 334.672,439.965 331.339,441.965 327,442.5C 325.97,442.836 325.47,443.503 325.5,444.5C 324.167,444.5 322.833,444.5 321.5,444.5C 314.659,445.162 308.493,443.495 303,439.5C 302.556,436.043 303.056,432.71 304.5,429.5C 303.37,425.443 302.037,421.443 300.5,417.5C 291.87,402.799 283.703,387.799 276,372.5C 270.485,363.044 272.651,355.877 282.5,351C 291.668,347.749 301.001,345.083 310.5,343C 314.22,340.015 318.553,338.848 323.5,339.5 Z"/></g>
<g><path style="opacity:0.873" fill="#46581e" d="M 181.5,369.5 C 193.351,372.203 205.351,373.87 217.5,374.5C 227.401,375.189 237.401,375.856 247.5,376.5C 248.338,376.842 248.672,377.508 248.5,378.5C 249.038,380.117 249.371,381.784 249.5,383.5C 253.952,397.641 257.618,411.974 260.5,426.5C 258.318,420.105 255.985,413.771 253.5,407.5C 253.5,407.167 253.5,406.833 253.5,406.5C 253.672,405.508 253.338,404.842 252.5,404.5C 250.535,395.626 248.202,386.959 245.5,378.5C 243.777,377.2 241.61,376.533 239,376.5C 236.39,376.533 234.223,377.2 232.5,378.5C 233.449,386.454 234.116,394.454 234.5,402.5C 234.5,404.167 234.5,405.833 234.5,407.5C 234.666,411.514 234.499,415.514 234,419.5C 232.955,420.373 232.122,421.373 231.5,422.5C 226.034,424.655 220.367,425.988 214.5,426.5C 218.291,425.047 222.291,423.881 226.5,423C 229.102,422.117 231.269,420.617 233,418.5C 233.341,409.441 232.841,400.441 231.5,391.5C 231.5,386.5 231.5,381.5 231.5,376.5C 228.833,376.5 226.167,376.5 223.5,376.5C 221.833,376.5 220.167,376.5 218.5,376.5C 205.707,375.916 193.374,373.583 181.5,369.5 Z M 232.5,378.5 C 236.833,378.5 241.167,378.5 245.5,378.5C 248.202,386.959 250.535,395.626 252.5,404.5C 246.329,404.899 240.329,404.232 234.5,402.5C 234.116,394.454 233.449,386.454 232.5,378.5 Z"/></g>
<g><path style="opacity:0.045" fill="#e9ebe4" d="M 245.5,378.5 C 241.167,378.5 236.833,378.5 232.5,378.5C 234.223,377.2 236.39,376.533 239,376.5C 241.61,376.533 243.777,377.2 245.5,378.5 Z"/></g>
<g><path style="opacity:1" fill="#6d9b24" d="M 248.5,378.5 C 250.74,379.568 252.574,381.234 254,383.5C 257.09,392.446 260.757,401.112 265,409.5C 264.931,402.772 264.098,396.105 262.5,389.5C 266.903,400.161 271.737,410.828 277,421.5C 279.546,424.186 282.713,425.186 286.5,424.5C 286.662,422.473 286.495,420.473 286,418.5C 282.874,413.237 280.541,407.57 279,401.5C 274.467,394.148 270.634,386.481 267.5,378.5C 272.084,382.058 274.917,386.725 276,392.5C 276.925,393.047 277.758,393.713 278.5,394.5C 283.594,405.28 288.594,416.113 293.5,427C 293.355,427.772 293.022,428.439 292.5,429C 286.175,429.5 279.842,429.666 273.5,429.5C 278.32,439.266 286.32,444.6 297.5,445.5C 301.5,445.5 305.5,445.5 309.5,445.5C 311.167,445.5 312.833,445.5 314.5,445.5C 303.576,446.958 292.576,446.624 281.5,444.5C 279.19,440.036 275.524,437.203 270.5,436C 266.948,432.673 265.114,428.506 265,423.5C 264.152,420.585 262.652,418.085 260.5,416C 257.566,405.431 254.399,394.931 251,384.5C 250.617,383.944 250.117,383.611 249.5,383.5C 249.371,381.784 249.038,380.117 248.5,378.5 Z"/></g>
<g><path style="opacity:0.62" fill="#495821" d="M 345.5,239.5 C 346.496,254.991 346.83,270.658 346.5,286.5C 346.667,302.837 346.5,319.17 346,335.5C 344.099,340.302 341.432,344.636 338,348.5C 339.119,373.505 340.619,398.505 342.5,423.5C 342.5,424.833 342.5,426.167 342.5,427.5C 342.665,431.182 342.499,434.848 342,438.5C 337.206,442.417 331.706,444.917 325.5,446C 312.198,447.472 298.864,447.805 285.5,447C 280.036,446.174 274.703,444.841 269.5,443C 268.058,442.623 267.058,441.79 266.5,440.5C 271.278,442.612 276.278,443.945 281.5,444.5C 292.576,446.624 303.576,446.958 314.5,445.5C 317.059,445.802 319.393,445.468 321.5,444.5C 322.833,444.5 324.167,444.5 325.5,444.5C 331.258,443.417 336.424,441.083 341,437.5C 340.582,420.984 339.416,404.651 337.5,388.5C 337.5,387.167 337.5,385.833 337.5,384.5C 336.981,373.155 336.314,361.821 335.5,350.5C 335.365,348.446 336.032,346.779 337.5,345.5C 341.289,341.593 343.789,336.926 345,331.5C 345.5,300.835 345.667,270.168 345.5,239.5 Z"/></g>
<g><path style="opacity:1" fill="#8db42c" d="M 321.5,338.5 C 322.492,338.328 323.158,338.662 323.5,339.5C 318.553,338.848 314.22,340.015 310.5,343C 301.001,345.083 291.668,347.749 282.5,351C 272.651,355.877 270.485,363.044 276,372.5C 283.703,387.799 291.87,402.799 300.5,417.5C 302.037,421.443 303.37,425.443 304.5,429.5C 303.056,432.71 302.556,436.043 303,439.5C 308.493,443.495 314.659,445.162 321.5,444.5C 319.393,445.468 317.059,445.802 314.5,445.5C 312.833,445.5 311.167,445.5 309.5,445.5C 304.537,444.173 300.87,441.173 298.5,436.5C 300.539,434.258 302.205,431.758 303.5,429C 301.881,423.718 299.047,419.218 295,415.5C 286.126,400.622 277.792,385.288 270,369.5C 269.749,367.567 269.249,365.734 268.5,364C 269.249,362.266 269.749,360.433 270,358.5C 271.988,355.017 274.488,352.017 277.5,349.5C 285.655,346.729 293.989,344.229 302.5,342C 304.167,341 305.833,340 307.5,339C 312.155,338.501 316.821,338.334 321.5,338.5 Z"/></g>
<g><path style="opacity:1" fill="#4e7817" d="M 159.5,394.5 C 160.024,399.641 161.191,404.641 163,409.5C 166.843,412.949 171.343,414.949 176.5,415.5C 174.954,407.232 174.454,398.898 175,390.5C 175.5,390 176,389.5 176.5,389C 187.18,387.13 197.847,387.296 208.5,389.5C 212.995,389.52 217.662,389.354 222.5,389C 224.767,385.019 225.101,380.852 223.5,376.5C 226.167,376.5 228.833,376.5 231.5,376.5C 231.5,381.5 231.5,386.5 231.5,391.5C 230.859,389.958 229.859,388.624 228.5,387.5C 226.953,390.613 224.953,393.447 222.5,396C 214.893,396.008 207.393,395.175 200,393.5C 195.329,393.244 190.496,393.577 185.5,394.5C 187.277,397.329 187.944,400.329 187.5,403.5C 189.115,404.154 190.782,404.654 192.5,405C 191.446,406.388 191.28,407.888 192,409.5C 196.778,411.867 201.612,414.034 206.5,416C 204.999,417.252 203.332,418.252 201.5,419C 188.402,420.952 175.902,419.118 164,413.5C 160.817,407.178 157.483,400.845 154,394.5C 153.501,398.152 153.335,401.818 153.5,405.5C 149.233,392.441 145.566,379.108 142.5,365.5C 143.688,364.316 144.855,364.316 146,365.5C 151.379,374.958 155.879,384.625 159.5,394.5 Z"/></g>
<g><path style="opacity:1" fill="#466d14" d="M 218.5,376.5 C 220.167,376.5 221.833,376.5 223.5,376.5C 225.101,380.852 224.767,385.019 222.5,389C 217.662,389.354 212.995,389.52 208.5,389.5C 197.847,387.296 187.18,387.13 176.5,389C 176,389.5 175.5,390 175,390.5C 174.454,398.898 174.954,407.232 176.5,415.5C 171.343,414.949 166.843,412.949 163,409.5C 161.191,404.641 160.024,399.641 159.5,394.5C 161.61,399.4 163.776,404.4 166,409.5C 169.116,411.024 170.95,410.024 171.5,406.5C 171.087,400.943 170.421,395.443 169.5,390C 171.457,388.009 173.457,386.009 175.5,384C 179.682,383.616 183.515,383.116 187,382.5C 198.073,384.68 208.739,386.013 219,386.5C 222.438,382.849 222.271,379.516 218.5,376.5 Z"/></g>
<g><path style="opacity:0.059" fill="#151515" d="M 234.5,402.5 C 240.329,404.232 246.329,404.899 252.5,404.5C 253.338,404.842 253.672,405.508 253.5,406.5C 247.149,406.557 240.815,406.89 234.5,407.5C 234.5,405.833 234.5,404.167 234.5,402.5 Z"/></g>
<g><path style="opacity:0.418" fill="#272727" d="M 253.5,406.5 C 253.5,406.833 253.5,407.167 253.5,407.5C 251.031,408.317 248.365,408.817 245.5,409C 243.403,410.61 241.07,411.777 238.5,412.5C 237.313,414.21 237.646,415.71 239.5,417C 238.351,418.73 238.351,420.396 239.5,422C 237.578,423.46 236.911,425.127 237.5,427C 235.963,428.11 235.297,429.61 235.5,431.5C 234.178,431.67 233.011,431.337 232,430.5C 229.444,432.339 229.277,434.672 231.5,437.5C 230.332,438.906 230.665,440.072 232.5,441C 237.246,441.853 241.913,443.02 246.5,444.5C 251.245,443.641 255.911,442.474 260.5,441C 259.833,439.333 259.167,437.667 258.5,436C 259.078,434.583 260.078,433.75 261.5,433.5C 261.981,436.834 263.647,439.167 266.5,440.5C 267.058,441.79 268.058,442.623 269.5,443C 274.703,444.841 280.036,446.174 285.5,447C 298.864,447.805 312.198,447.472 325.5,446C 331.706,444.917 337.206,442.417 342,438.5C 342.499,434.848 342.665,431.182 342.5,427.5C 350.778,429.647 355.444,434.98 356.5,443.5C 356.555,447.056 355.722,450.389 354,453.5C 351.65,455.683 349.483,458.016 347.5,460.5C 345.757,462.038 343.757,463.038 341.5,463.5C 332.161,463.666 322.827,463.5 313.5,463C 305.318,459.078 296.651,457.078 287.5,457C 276.194,454.623 265.527,451.289 255.5,447C 245.766,445.818 236.1,444.151 226.5,442C 225.789,440.745 224.956,439.579 224,438.5C 223.667,438.833 223.333,439.167 223,439.5C 212.384,438.14 201.884,436.973 191.5,436C 190.833,435.667 190.167,435.333 189.5,435C 200.866,434.701 212.199,432.701 223.5,429C 226.772,427.392 229.772,425.392 232.5,423C 232.272,422.601 231.938,422.435 231.5,422.5C 232.122,421.373 232.955,420.373 234,419.5C 234.499,415.514 234.666,411.514 234.5,407.5C 240.815,406.89 247.149,406.557 253.5,406.5 Z"/></g>
<g><path style="opacity:0.475" fill="#2d2d2d" d="M 253.5,407.5 C 255.985,413.771 258.318,420.105 260.5,426.5C 260.448,428.903 260.781,431.236 261.5,433.5C 260.078,433.75 259.078,434.583 258.5,436C 259.167,437.667 259.833,439.333 260.5,441C 255.911,442.474 251.245,443.641 246.5,444.5C 241.913,443.02 237.246,441.853 232.5,441C 230.665,440.072 230.332,438.906 231.5,437.5C 229.277,434.672 229.444,432.339 232,430.5C 233.011,431.337 234.178,431.67 235.5,431.5C 235.297,429.61 235.963,428.11 237.5,427C 236.911,425.127 237.578,423.46 239.5,422C 238.351,420.396 238.351,418.73 239.5,417C 237.646,415.71 237.313,414.21 238.5,412.5C 241.07,411.777 243.403,410.61 245.5,409C 248.365,408.817 251.031,408.317 253.5,407.5 Z"/></g>
<g><path style="opacity:0.484" fill="#212120" d="M 151.5,409.5 C 152.678,413.176 154.178,416.843 156,420.5C 156.671,421.252 157.504,421.586 158.5,421.5C 162.203,424.517 166.536,426.184 171.5,426.5C 172.952,427.302 174.618,427.802 176.5,428C 187.008,428.825 197.342,428.659 207.5,427.5C 210.059,427.802 212.393,427.468 214.5,426.5C 220.367,425.988 226.034,424.655 231.5,422.5C 231.938,422.435 232.272,422.601 232.5,423C 229.772,425.392 226.772,427.392 223.5,429C 212.199,432.701 200.866,434.701 189.5,435C 190.167,435.333 190.833,435.667 191.5,436C 201.884,436.973 212.384,438.14 223,439.5C 223.333,439.167 223.667,438.833 224,438.5C 224.956,439.579 225.789,440.745 226.5,442C 236.1,444.151 245.766,445.818 255.5,447C 265.527,451.289 276.194,454.623 287.5,457C 296.651,457.078 305.318,459.078 313.5,463C 322.827,463.5 332.161,463.666 341.5,463.5C 330.674,464.659 319.674,464.826 308.5,464C 298.71,461.115 288.71,459.281 278.5,458.5C 270.846,456.559 263.513,453.725 256.5,450C 254.19,449.503 251.857,449.337 249.5,449.5C 241.816,446.669 233.816,444.502 225.5,443C 211.198,441.82 196.865,441.153 182.5,441C 174.11,439.768 165.777,438.435 157.5,437C 153.619,433.272 149.952,429.272 146.5,425C 138.844,421.294 138.511,416.794 145.5,411.5C 147.657,410.95 149.657,410.283 151.5,409.5 Z"/></g>
<g><path style="opacity:1" fill="#96b735" d="M 337.5,388.5 C 339.416,404.651 340.582,420.984 341,437.5C 336.424,441.083 331.258,443.417 325.5,444.5C 325.47,443.503 325.97,442.836 327,442.5C 331.339,441.965 334.672,439.965 337,436.5C 338.726,427.387 338.893,418.387 337.5,409.5C 337.5,402.5 337.5,395.5 337.5,388.5 Z"/></g>
<g><path style="opacity:1" fill="#547f1a" d="M 231.5,391.5 C 232.841,400.441 233.341,409.441 233,418.5C 231.269,420.617 229.102,422.117 226.5,423C 222.291,423.881 218.291,425.047 214.5,426.5C 212.393,427.468 210.059,427.802 207.5,427.5C 195.482,427.642 183.482,427.309 171.5,426.5C 167.345,424.598 163.011,422.931 158.5,421.5C 155.333,416.699 153.667,411.365 153.5,405.5C 153.335,401.818 153.501,398.152 154,394.5C 157.483,400.845 160.817,407.178 164,413.5C 175.902,419.118 188.402,420.952 201.5,419C 203.332,418.252 204.999,417.252 206.5,416C 201.612,414.034 196.778,411.867 192,409.5C 191.28,407.888 191.446,406.388 192.5,405C 190.782,404.654 189.115,404.154 187.5,403.5C 187.944,400.329 187.277,397.329 185.5,394.5C 190.496,393.577 195.329,393.244 200,393.5C 207.393,395.175 214.893,396.008 222.5,396C 224.953,393.447 226.953,390.613 228.5,387.5C 229.859,388.624 230.859,389.958 231.5,391.5 Z"/></g>
<g><path style="opacity:1" fill="#5e8a1f" d="M 249.5,383.5 C 250.117,383.611 250.617,383.944 251,384.5C 254.399,394.931 257.566,405.431 260.5,416C 262.652,418.085 264.152,420.585 265,423.5C 265.114,428.506 266.948,432.673 270.5,436C 275.524,437.203 279.19,440.036 281.5,444.5C 276.278,443.945 271.278,442.612 266.5,440.5C 263.59,436.155 261.59,431.488 260.5,426.5C 257.618,411.974 253.952,397.641 249.5,383.5 Z"/></g>
<g><path style="opacity:0.976" fill="#3a4919" d="M 158.5,421.5 C 163.011,422.931 167.345,424.598 171.5,426.5C 166.536,426.184 162.203,424.517 158.5,421.5 Z"/></g>
<g><path style="opacity:1" fill="#3c4d18" d="M 171.5,426.5 C 183.482,427.309 195.482,427.642 207.5,427.5C 197.342,428.659 187.008,428.825 176.5,428C 174.618,427.802 172.952,427.302 171.5,426.5 Z"/></g>
<g><path style="opacity:0.867" fill="#3c4a1a" d="M 260.5,426.5 C 261.59,431.488 263.59,436.155 266.5,440.5C 263.647,439.167 261.981,436.834 261.5,433.5C 260.781,431.236 260.448,428.903 260.5,426.5 Z"/></g>
<g><path style="opacity:1" fill="#aecc41" d="M 335.5,388.5 C 336.167,387.167 336.833,385.833 337.5,384.5C 337.5,385.833 337.5,387.167 337.5,388.5C 337.5,395.5 337.5,402.5 337.5,409.5C 337.666,416.175 337.5,422.842 337,429.5C 336.71,431.952 336.044,434.285 335,436.5C 329.003,441.375 322.17,443.208 314.5,442C 310.057,440.328 308.557,437.495 310,433.5C 312.589,431.789 315.089,429.955 317.5,428C 321.043,428.26 324.543,429.093 328,430.5C 328.772,430.355 329.439,430.022 330,429.5C 330.61,425.764 330.277,422.097 329,418.5C 328.577,417.044 327.744,416.544 326.5,417C 322.875,426.742 317.541,427.909 310.5,420.5C 307,415.5 303.5,410.5 300,405.5C 292.753,390.672 285.253,376.005 277.5,361.5C 278.493,357.999 280.493,355.166 283.5,353C 288.155,352.116 292.488,350.449 296.5,348C 303.86,347.617 311.193,346.95 318.5,346C 319.711,344.887 319.711,343.72 318.5,342.5C 323.394,340.629 327.561,341.629 331,345.5C 331.249,348.177 332.249,350.51 334,352.5C 335.365,364.453 335.865,376.453 335.5,388.5 Z"/></g>
<g><path style="opacity:1" fill="#b8d241" d="M 324.5,349.5 C 324.538,351.636 325.205,352.969 326.5,353.5C 325.698,354.952 325.198,356.618 325,358.5C 318.652,351.295 310.818,349.129 301.5,352C 286.767,354.622 284.767,360.955 295.5,371C 295.167,371.333 294.833,371.667 294.5,372C 297.112,376.498 298.945,381.332 300,386.5C 301.385,387.551 302.385,388.884 303,390.5C 304.364,389.742 305.531,390.242 306.5,392C 305.542,393.147 305.875,394.147 307.5,395C 308.5,395.333 309.5,395.667 310.5,396C 310.167,396.333 309.833,396.667 309.5,397C 311.113,397.089 312.28,396.255 313,394.5C 315.096,395.715 314.929,396.549 312.5,397C 314.661,397.722 316.328,397.055 317.5,395C 317.167,394.667 316.833,394.333 316.5,394C 318.23,392.148 319.396,392.314 320,394.5C 320.85,392.99 321.683,391.49 322.5,390C 322.355,389.228 322.022,388.561 321.5,388C 322.288,384.924 322.788,381.758 323,378.5C 323.667,377.833 324.333,377.167 325,376.5C 326.613,381.918 328.113,387.251 329.5,392.5C 329.277,394.342 328.943,396.175 328.5,398C 329.439,402.469 330.106,406.969 330.5,411.5C 330.302,416.564 329.635,416.397 328.5,411C 328.15,409.743 327.483,409.409 326.5,410C 325.206,412.087 324.039,414.254 323,416.5C 318.109,420.293 313.609,419.627 309.5,414.5C 306.5,410.5 303.5,406.5 300.5,402.5C 295.292,389.082 288.792,376.415 281,364.5C 279.357,359.572 280.857,356.072 285.5,354C 291.355,352.788 297.022,351.122 302.5,349C 309.158,348.5 315.825,348.334 322.5,348.5C 323.268,344.861 323.934,345.194 324.5,349.5 Z"/></g>
<g><path style="opacity:1" fill="#bcd64c" d="M 335.5,388.5 C 335.666,397.173 335.5,405.84 335,414.5C 334.333,415.167 333.667,415.833 333,416.5C 332.243,414.685 331.41,413.019 330.5,411.5C 330.106,406.969 329.439,402.469 328.5,398C 328.943,396.175 329.277,394.342 329.5,392.5C 329.081,379.435 328.081,366.435 326.5,353.5C 325.205,352.969 324.538,351.636 324.5,349.5C 325.404,348.791 325.737,347.791 325.5,346.5C 326.822,346.33 327.989,346.663 329,347.5C 330.275,349.717 331.275,352.051 332,354.5C 333.269,365.976 334.435,377.309 335.5,388.5 Z"/></g>
<g><path style="opacity:1" fill="#bfd846" d="M 326.5,353.5 C 328.081,366.435 329.081,379.435 329.5,392.5C 328.113,387.251 326.613,381.918 325,376.5C 324.333,377.167 323.667,377.833 323,378.5C 322.788,381.758 322.288,384.924 321.5,388C 322.022,388.561 322.355,389.228 322.5,390C 321.683,391.49 320.85,392.99 320,394.5C 319.396,392.314 318.23,392.148 316.5,394C 316.833,394.333 317.167,394.667 317.5,395C 316.328,397.055 314.661,397.722 312.5,397C 314.929,396.549 315.096,395.715 313,394.5C 312.28,396.255 311.113,397.089 309.5,397C 309.833,396.667 310.167,396.333 310.5,396C 309.5,395.667 308.5,395.333 307.5,395C 305.875,394.147 305.542,393.147 306.5,392C 305.531,390.242 304.364,389.742 303,390.5C 302.385,388.884 301.385,387.551 300,386.5C 298.945,381.332 297.112,376.498 294.5,372C 294.833,371.667 295.167,371.333 295.5,371C 284.767,360.955 286.767,354.622 301.5,352C 310.818,349.129 318.652,351.295 325,358.5C 325.198,356.618 325.698,354.952 326.5,353.5 Z"/></g>
<g><path style="opacity:1" fill="#83ad2b" d="M 277.5,349.5 C 274.488,352.017 271.988,355.017 270,358.5C 269.749,360.433 269.249,362.266 268.5,364C 269.249,365.734 269.749,367.567 270,369.5C 277.792,385.288 286.126,400.622 295,415.5C 299.047,419.218 301.881,423.718 303.5,429C 302.205,431.758 300.539,434.258 298.5,436.5C 300.87,441.173 304.537,444.173 309.5,445.5C 305.5,445.5 301.5,445.5 297.5,445.5C 293.041,444.174 288.707,442.34 284.5,440C 282.081,438.491 281.081,436.325 281.5,433.5C 286.554,432.994 291.554,432.161 296.5,431C 297.675,428.162 297.509,425.329 296,422.5C 286.111,404.537 276.778,386.204 268,367.5C 265.923,358.551 269.089,352.551 277.5,349.5 Z"/></g>
<g><path style="opacity:0.021" fill="#030303" d="M 150.5,407.5 C 151.338,407.842 151.672,408.508 151.5,409.5C 149.657,410.283 147.657,410.95 145.5,411.5C 138.511,416.794 138.844,421.294 146.5,425C 149.952,429.272 153.619,433.272 157.5,437C 165.777,438.435 174.11,439.768 182.5,441C 196.865,441.153 211.198,441.82 225.5,443C 233.816,444.502 241.816,446.669 249.5,449.5C 239.693,447.439 229.859,445.439 220,443.5C 199.215,445.738 178.715,444.238 158.5,439C 149.382,434.747 142.716,428.081 138.5,419C 140.353,412.982 144.353,409.148 150.5,407.5 Z"/></g>
<g><path style="opacity:0.013" fill="#0a0a0a" d="M 342.5,423.5 C 358.711,428.587 363.545,438.92 357,454.5C 346.062,466.435 332.562,470.602 316.5,467C 303.211,464.709 289.878,462.709 276.5,461C 266.695,458.756 257.695,454.923 249.5,449.5C 251.857,449.337 254.19,449.503 256.5,450C 263.513,453.725 270.846,456.559 278.5,458.5C 288.71,459.281 298.71,461.115 308.5,464C 319.674,464.826 330.674,464.659 341.5,463.5C 343.757,463.038 345.757,462.038 347.5,460.5C 349.483,458.016 351.65,455.683 354,453.5C 355.722,450.389 356.555,447.056 356.5,443.5C 355.444,434.98 350.778,429.647 342.5,427.5C 342.5,426.167 342.5,424.833 342.5,423.5 Z"/></g>
</svg>
